<?xml version="1.0" encoding="utf-8"?>
<!-- Generator: Adobe Illustrator 24.3.0, SVG Export Plug-In . SVG Version: 6.00 Build 0)  -->
<svg version="1.1" id="Camada_1" xmlns="http://www.w3.org/2000/svg" xmlns:xlink="http://www.w3.org/1999/xlink" x="0px" y="0px"
	 viewBox="0 0 512 512" style="enable-background:new 0 0 512 512;" xml:space="preserve">
<style type="text/css">
	.st0{fill:#FFFFFF;}
</style>
<g id="Outline">
	<path class="st0" d="M485.4,382.8l-1-2.2l-14.6,6.6l1,2.1c6.1,13.4,9.2,27.9,9.2,42.5c0,26.5-21.5,48-48,48c0,0,0,0,0,0h-56
		c-4.4,0-8-3.6-8-8v-48c0-4.4,3.6-8,8-8h24c4.4,0,8-3.6,8-8v-10.1c0-3.3,2.7-5.9,5.9-5.9c2.6,0,4.8,1.6,5.6,4.1l4.8,14.5
		c1.1,3.3,4.1,5.5,7.6,5.5h32v-16h-26.2l-3-9c-3.7-11.1-15.5-17.4-26.8-14.2v-30.3l36-16l18.5,40.8l14.6-6.6l-42-92.3
		C421.7,242.9,392.4,224,360,224h-13.5c1.8-5.2,3.2-10.6,4.1-16h1.3c17.7,0,32-14.3,32-32s-14.3-32-32-32V96c0-30.9-25.1-56-56-56
		h-2.7c-7.3-14.7-22.2-24-38.6-24H232c-48.6,0.1-87.9,39.4-88,88v24c0,4.4,3.6,8,8,8h8v8c-17.7,0-32,14.3-32,32s14.3,32,32,32h1.3
		c0.9,5.4,2.3,10.8,4.1,16H152c-15.9,0-31.4,4.6-44.7,13.1c-2.2,1.4-4.4,3-6.4,4.6l9.9,12.6c1.7-1.3,3.4-2.5,5.2-3.7
		c10.7-6.9,23.2-10.6,36-10.6h20.9c26.5,45.9,85.2,61.6,131.1,35.2c14.6-8.4,26.7-20.6,35.2-35.2H360c26.1,0,49.8,15.3,60.6,39
		l16.8,37L408,329v-25c0-4.4-3.6-8-8-8H288c-12.6,0-24.5,5.9-32,16c-7.5-10.1-19.4-16-32-16H112c-4.4,0-8,3.6-8,8v25L74.6,316
		l16.8-37c2.7-6,6.3-11.5,10.6-16.4l-12-10.6c-5.4,6.1-9.8,12.9-13.1,20.3L26.6,382.8C19.6,398.3,16,415,16,432
		c0,35.3,28.6,64,64,64c0,0,0,0,0,0h352c35.3,0,64-28.6,64-64c0,0,0,0,0,0C496,415,492.4,398.3,485.4,382.8z M352,160
		c8.8,0,16,7.2,16,16s-7.2,16-16,16V160z M160,192c-8.8,0-16-7.2-16-16s7.2-16,16-16V192z M160,120v-11.7c3-0.2,6-0.5,8.9-0.9
		c7.4-0.8,14.9-2.1,22.2-3.6c46-9.8,74.1-30.2,75.3-31l-9.5-12.9c-0.3,0.2-26.5,19.2-69.2,28.3c-6.8,1.5-13.8,2.6-20.7,3.4
		c-2,0.2-4,0.4-6.1,0.6c0.9-5.1,2.3-10.1,4.2-15c38.6-5.5,73.3-20.7,73.7-20.9l-3.2-7.2l-2.6-7.7c-0.3,0.1-0.5,0.2-0.8,0.3
		c-18.3,7.7-37.3,13.5-56.7,17.5C189.3,42,210.1,32,232,32h22.7c11.2,0,21.3,6.9,25.3,17.4v42.3c-29.2,18.5-63.1,28.4-97.7,28.3H160
		z M183.7,136c-2.5,1.5-5.1,2.8-7.7,4.1V136h6.3C182.8,136,183.2,136,183.7,136z M336,192c0,44.2-35.8,80-80,80s-80-35.8-80-80
		v-34.6l1.8-0.7c13-5.2,24.8-13.1,34.7-23c25.5-3.9,50-12.7,72.1-26.1c11.1,21.8,29.2,39.3,51.5,49.6V192z M336,97.3
		c-8.3-8.9-17.6-16.9-27.6-23.9l-8.9,13.3c0.2,0.1,21.6,14.6,36.4,35.8v16.8c-17.9-10.1-32-25.9-40-44.9V56c22.1,0,40,17.9,40,40
		L336,97.3z M144,472c0,4.4-3.6,8-8,8H80c-26.5,0-48-21.5-48-48c0-14.7,3.1-29.2,9.2-42.5L68,330.5l36,16v30.3
		c-11.3-3.2-23.1,3.1-26.8,14.2l-3,9H48v16h32c3.4,0,6.5-2.2,7.6-5.5l4.8-14.5c1-3.1,4.4-4.8,7.5-3.8c2.4,0.8,4.1,3.1,4.1,5.6V408
		c0,4.4,3.6,8,8,8h24c4.4,0,8,3.6,8,8V472z M232,480h-73.4c0.9-2.6,1.4-5.3,1.4-8v-48c0-13.2-10.8-24-24-24h-16v-56h112V480z
		 M120,328v-16h104c10.2,0,19.2,6.4,22.6,16H120z M264,480h-16V344h16V480z M288,312h104v16H265.4C268.8,318.4,277.8,312,288,312z
		 M353.4,480H280V344h112v56h-16c-13.2,0-24,10.8-24,24v48C352,474.7,352.5,477.4,353.4,480z M216,192c-8.8,0-16-7.2-16-16
		s7.2-16,16-16s16,7.2,16,16C232,184.8,224.8,192,216,192z M296,160c8.8,0,16,7.2,16,16s-7.2,16-16,16s-16-7.2-16-16
		C280,167.2,287.2,160,296,160z M275.3,209.6l9.5,12.9c-17,12.8-40.5,12.8-57.5,0l9.5-12.9C248.1,218.1,263.9,218.1,275.3,209.6z
		 M368,384h-64v-16h64V384z M312,400h32v16h-32V400z"/>
</g>
</svg>
