<?xml version="1.0" encoding="utf-8"?>
<!-- Generator: Adobe Illustrator 24.3.0, SVG Export Plug-In . SVG Version: 6.00 Build 0)  -->
<svg version="1.1" id="Camada_1" xmlns="http://www.w3.org/2000/svg" xmlns:xlink="http://www.w3.org/1999/xlink" x="0px" y="0px"
	 viewBox="0 0 750 419.1" style="enable-background:new 0 0 750 419.1;" xml:space="preserve">
<style type="text/css">
	.st0{fill:#EBEBEB;}
	.st1{fill:#E0E0E0;}
	.st2{fill:#FF725E;}
	.st3{opacity:0.7;}
	.st4{fill:#FFFFFF;}
	.st5{fill:#263238;}
	.st6{fill:#F4D3BD;}
	.st7{fill:#EAAE94;}
	.st8{fill:#455A64;}
	.st9{opacity:0.6;}
	.st10{opacity:0.3;}
	.st11{fill:#FAFAFA;}
	.st12{fill:#B78876;}
	.st13{fill:#AA6550;}
</style>
<g id="freepik--background-complete--inject-44">
	<path class="st0" d="M71.6,296.7c0,0-2.9,6.8,13,11.5s24.8,6,24.8,6s3.4,1.4,1.8,3.9s-6.7,6.4-5.1,9.7s6.1,4,12,2.1
		s19-5.3,20.2-5.6s3,0,2.2,1.9s-9.6,13.2-4,17.1s21.3-3.9,23-4.7s2.6-0.6,3.2,0.2s-2.7,4.3-5.1,7.6s-4.5,7.6-1.1,9.6s16,0.5,33.9-15
		l7.9-7.7l-2.6-10.8c-6.9-22.7-16.8-30.6-20.7-30.8s-4.4,4.6-4.2,8.7s1.1,8.9,0.2,9.2s-1.8,0.1-2.8-1.5s-10.1-16.5-16.9-16.3
		s-5.5,14.5-5.7,16.5s-2.1,1.3-2.9,0.4s-10.1-10.8-14.1-15.5s-7.9-6.6-11.3-4.6s-0.9,8-0.9,10.9s-3.6,2.3-3.6,2.3s-8.2-3.7-24.2-8.1
		S71.6,296.7,71.6,296.7"/>
	<path class="st1" d="M200.6,334.7c-11.7-3.3-32.4-9.6-50.2-14.9s-33.9-10-45.6-13.4l-13.8-4l-3.8-1.1l-1-0.3l-0.3-0.1l0.3,0.1
		l1,0.3l3.8,1c3.3,0.9,8,2.2,13.9,3.9c11.7,3.3,27.8,8,45.7,13.3s38.5,11.6,50.2,15"/>
	<path class="st1" d="M113.5,322.7c0.2-0.2,0.4-0.3,0.7-0.4c0.4-0.2,1.1-0.6,1.9-1c1.6-0.8,3.9-1.9,6.5-3l6.5-2.9l2-0.9
		c0.2-0.1,0.5-0.2,0.7-0.3c-0.2,0.2-0.4,0.3-0.7,0.4c-0.4,0.2-1.1,0.6-1.9,1c-1.7,0.8-4,1.8-6.5,2.9l-6.5,2.9l-2,0.9
		C114,322.5,113.7,322.6,113.5,322.7z"/>
	<path class="st1" d="M131.9,313.2c-0.1,0-2.5-4.6-5.3-10.4s-5.1-10.5-5-10.5s2.5,4.6,5.3,10.4S132,313.2,131.9,313.2z"/>
	<path class="st1" d="M158.9,322.6c-0.1-0.3-0.1-0.5-0.2-0.8c-0.1-0.6-0.2-1.3-0.4-2.2c-0.3-1.8-0.8-4.4-1.4-7.1s-1.2-5.3-1.7-7.1
		c-0.2-0.9-0.4-1.6-0.6-2.1c-0.1-0.3-0.1-0.5-0.2-0.8c0.1,0.2,0.2,0.5,0.3,0.8c0.2,0.5,0.4,1.2,0.7,2.1c0.5,1.8,1.2,4.3,1.8,7.1
		s1.1,5.3,1.3,7.2c0.1,0.9,0.2,1.7,0.3,2.2C158.9,322,158.9,322.3,158.9,322.6z"/>
	<path class="st1" d="M144.1,334.8c0.2-0.2,0.3-0.4,0.5-0.5c0.4-0.4,0.9-0.8,1.5-1.4c1.3-1.1,3.1-2.7,5.1-4.4s3.8-3.2,5.2-4.3
		l1.6-1.3c0.2-0.2,0.4-0.3,0.6-0.4c-0.2,0.2-0.3,0.4-0.5,0.5l-1.5,1.4c-1.3,1.1-3.1,2.7-5.1,4.4s-3.8,3.2-5.2,4.3l-1.6,1.3
		C144.5,334.5,144.3,334.6,144.1,334.8z"/>
	<path class="st1" d="M166.9,346c0.2-0.2,0.4-0.5,0.7-0.7l2-1.8c1.6-1.5,3.9-3.5,6.5-5.7s4.9-4.2,6.6-5.6l2-1.7
		c0.2-0.2,0.5-0.4,0.8-0.6c-0.2,0.2-0.4,0.5-0.7,0.7l-1.9,1.8c-1.6,1.5-3.9,3.5-6.5,5.7s-4.9,4.2-6.6,5.6l-2,1.7
		C167.4,345.7,167.2,345.9,166.9,346z"/>
	<path class="st1" d="M184.8,330.3c-0.1-0.3-0.2-0.7-0.2-1c-0.2-0.7-0.4-1.6-0.6-2.7c-0.5-2.3-1.2-5.5-2.1-9s-1.8-6.6-2.4-8.9
		c-0.3-1.1-0.6-2-0.8-2.7c-0.1-0.3-0.2-0.7-0.2-1c0.1,0.3,0.3,0.7,0.4,1c0.2,0.6,0.5,1.5,0.9,2.7c0.7,2.3,1.6,5.4,2.5,8.9
		s1.6,6.7,2,9c0.2,1.2,0.4,2.1,0.5,2.8C184.8,329.6,184.8,330,184.8,330.3z"/>
	<path class="st0" d="M523,121.2c-14-9.4-17.4-27.2-17.1-43.3c0-2.7-0.3-5.5,0.9-7.9s4.2-4,6.6-2.9c2,0.9,2.9,3.2,4.1,5.1
		c1.5,2.5,3.8,4.6,6.4,5.9c1.7,0.9,3.8,1.4,5.5,0.4c2.3-1.3,2.5-4.5,2.5-7.2l-0.4-14.9c-0.2-2.7,0-5.3,0.7-7.9
		c0.8-2.6,2.6-4.9,5.1-5.7s5.7,0.7,6.3,3.3c0.1,1.1,0.2,2.2,0.1,3.3c0,1.1,0.6,2.2,1.7,2.6c1.1,0.3,2.1-0.5,2.9-1.3
		c2.7-2.8,4.5-6.2,6.2-9.7s3.3-7,5.8-10s5.9-5.4,9.7-5.7s7.9,2,9,5.7s-1.1,7.6-3.4,10.7c-3.5,4.6-7.6,8.6-12.2,12.1
		c-0.9,0.5-1.6,1.3-2,2.3c-0.5,1.8,1.2,3.5,2.9,4.1c2,0.6,4.2,0.4,6.2,0.6s4.3,1.1,5.2,3c1.1,2.7-1.1,5.6-3.3,7.5
		c-4.4,3.8-9.5,6.9-14.9,9c-2,0.6-3.9,1.6-5.6,2.8c-1.6,1.4-2.5,3.8-1.5,5.7s3.5,2.4,5.5,2s3.9-1.6,5.8-2.3
		c3.7-1.4,8.4-1.3,10.8,1.8c1.5,2.2,1.9,5,1,7.5c-0.8,2.5-2.2,4.7-3.9,6.7c-5.7,7.1-13.2,12.5-21.7,15.8
		C539.4,123.2,531.5,124.1,523,121.2"/>
	<path class="st1" d="M527,111.1c2.5-8.8,5.5-17.5,9-25.9c0.9-2.2,1.8-4.5,2.7-6.7s1.8-4.4,2.8-6.4c1.9-4,4.1-7.8,6.4-11.6
		c2.2-3.6,4.5-6.9,6.6-10s4.2-5.9,6.1-8.4c3.1-4,6.5-7.7,10.1-11.1c1.3-1.2,2.3-2.1,3-2.7l0.8-0.7c0.1-0.1,0.2-0.2,0.3-0.2
		c-0.1,0.1-0.2,0.2-0.3,0.3l-0.8,0.7c-0.7,0.6-1.7,1.6-3,2.8c-3.6,3.5-7,7.2-10,11.2c-1.9,2.5-4,5.3-6.1,8.4s-4.3,6.4-6.5,10
		c-2.3,3.7-4.5,7.6-6.4,11.5c-1,2.1-1.9,4.2-2.8,6.4l-2.7,6.7c-3.5,8.4-6.5,17.1-9,25.9"/>
	<path class="st1" d="M541.6,72c-0.1-0.4-0.2-0.7-0.3-1.1c-0.2-0.7-0.3-1.8-0.5-3.1c-0.4-2.6-0.9-6.3-1.4-10.4s-1-7.7-1.5-10.4
		c-0.2-1.3-0.4-2.4-0.6-3.1c-0.1-0.4-0.2-0.8-0.2-1.2c0.2,0.4,0.3,0.7,0.3,1.1c0.2,0.7,0.5,1.8,0.7,3.1c0.5,2.6,1.1,6.3,1.6,10.4
		s0.9,7.6,1.2,10.4c0.2,1.2,0.3,2.3,0.4,3.1C541.6,71.3,541.6,71.7,541.6,72z"/>
	<path class="st1" d="M575.8,65c-0.4,0.1-0.9,0.2-1.4,0.2c-0.9,0.1-2.2,0.2-3.7,0.4c-3.1,0.4-7.5,1.1-12.2,2.1s-9,2.1-12,2.9
		c-1.5,0.4-2.8,0.8-3.6,1.1c-0.4,0.2-0.9,0.3-1.3,0.4c0.4-0.2,0.8-0.4,1.3-0.5c0.8-0.3,2-0.7,3.6-1.2c3-0.9,7.3-2.1,12-3.1
		c4-0.9,8.1-1.5,12.2-1.9c1.6-0.2,2.9-0.2,3.7-0.3C574.9,65,575.4,65,575.8,65z"/>
	<path class="st1" d="M527.4,110.4c-0.1-0.1-0.2-0.3-0.2-0.4c-0.2-0.3-0.4-0.7-0.6-1.2c-0.5-1.1-1.2-2.6-2.1-4.6
		c-1.7-3.9-3.9-9.4-6.3-15.4s-4.5-11.5-6.2-15.5c-0.8-1.9-1.5-3.5-2-4.6l-0.5-1.3c-0.1-0.1-0.1-0.3-0.2-0.5c0,0,0.1,0.1,0.2,0.4
		l0.6,1.2c0.5,1.1,1.2,2.6,2.1,4.6c1.7,3.9,3.9,9.4,6.3,15.4s4.6,11.5,6.2,15.5c0.8,1.9,1.5,3.5,2,4.6l0.5,1.3
		C527.3,110.2,527.3,110.3,527.4,110.4z"/>
	<path class="st1" d="M572.7,94.9c-0.1,0.1-0.3,0.2-0.5,0.2l-1.3,0.5l-4.8,1.7c-4.1,1.4-9.7,3.4-16,5.7s-11.9,4.2-16,5.5
		c-2.1,0.7-3.7,1.2-4.9,1.5l-1.3,0.4c-0.2,0.1-0.3,0.1-0.5,0.1c0.1-0.1,0.3-0.2,0.5-0.2l1.3-0.5c1.2-0.4,2.9-1,4.8-1.7
		c4.1-1.4,9.7-3.4,16-5.6s11.9-4.2,16-5.5c2.1-0.7,3.7-1.2,4.9-1.5l1.3-0.4C572.4,95,572.5,95,572.7,94.9z"/>
	<path class="st0" d="M675.9,188.3c-0.2,2.7-1.6,5.3-3.7,7c-2.1,1.7-4.6,2.9-7.3,3.5c-5.1,1.3-11.1,0.4-16.2-1.2
		c2.1-5.5,8-8.8,11.1-10.3C664.7,185,675.1,183.8,675.9,188.3"/>
	<path class="st0" d="M642.4,205.5c2.6-1.6,5.9-1.7,8.7-0.3c2.7,1.5,4.7,4,5.5,7c0.5,1.3,0.4,2.8-0.3,4.1c-0.8,1.1-2.2,1.6-3.5,1.4
		c-1.3-0.2-2.5-0.8-3.5-1.6C645.7,213.3,642.7,210,642.4,205.5"/>
	<path class="st1" d="M629.3,204.8c1.1-0.3,2.3-0.5,3.4-0.6c1.3-0.2,2.5-0.2,3.8,0c1.5,0.1,3.1,0.4,4.6,0.7c2.8,0.6,5.4,1.9,7.5,3.8
		c0.6,0.6,1.2,1.2,1.7,1.9c0.2,0.2,0.4,0.5,0.5,0.8c-0.1,0.1-0.8-1.1-2.5-2.4c-2.2-1.7-4.7-2.9-7.4-3.5c-1.5-0.3-3-0.6-4.5-0.7
		c-1.2-0.2-2.5-0.2-3.7-0.1C631.6,204.8,630.4,204.8,629.3,204.8z"/>
	<path class="st1" d="M668.1,190c-0.5,0.3-1,0.6-1.6,0.8c-1,0.5-2.5,1.1-4.4,1.9c-3.7,1.6-8.9,3.7-14.7,5.9s-11.1,4.1-14.9,5.3
		c-1.9,0.6-3.5,1.1-4.6,1.4c-0.6,0.2-1.1,0.3-1.7,0.4c0.5-0.3,1.1-0.5,1.6-0.7l4.5-1.6c3.8-1.4,9.1-3.3,14.8-5.5l14.7-5.8l4.5-1.7
		C667,190.3,667.6,190.1,668.1,190z"/>
	<path class="st0" d="M638.2,199.9c5.1-4,8-10.3,7.8-16.8c-0.1-1.6-0.6-3.5-2.1-4.1s-3.2,0.6-4.2,1.9c-4.4,5.4-5.2,12.9-1.9,19.1"/>
	<path class="st1" d="M642.4,186.3c0.1,0.3,0.1,0.6,0,0.9c0,0.6-0.1,1.5-0.2,2.5c-0.3,2.8-1.2,5.5-2.5,8c-0.8,1.4-1.7,2.6-2.9,3.6
		c-1.6,1.4-3.5,2.4-5.5,3c-0.3,0.1-0.6,0.2-0.9,0.2c0-0.1,1.2-0.5,3.1-1.4c1.1-0.6,2.1-1.3,3-2.1c1.1-1,2-2.2,2.7-3.5
		c1.3-2.4,2.1-5,2.6-7.7C641.9,188.6,642.1,187.4,642.4,186.3z"/>
	<path class="st0" d="M108.3,16.4c3.3-0.2,6.5,1,8.8,3.2c2.4,2.2,4.2,5,5.3,8c2.4,5.8,2.3,12.9,1.4,19.1
		c-6.8-1.5-11.6-7.8-13.9-11.2C106.3,30.1,103.1,18.2,108.3,16.4"/>
	<path class="st0" d="M134,52.7c-2.4-2.8-3-6.7-1.8-10.1c1.3-3.4,3.9-6.1,7.3-7.6c1.5-0.7,3.3-1.1,4.8-0.4c1.4,0.8,2.2,2.3,2.2,3.9
		c0,1.6-0.5,3.1-1.3,4.4C142.6,47.6,139.2,51.6,134,52.7"/>
	<path class="st1" d="M135.5,68.3c-0.6-1.3-1-2.6-1.3-3.9c-0.4-1.5-0.6-3-0.7-4.5c-0.1-1.8-0.1-3.7,0.1-5.5c0.3-3.4,1.3-6.6,3.1-9.4
		c0.6-0.8,1.2-1.6,1.9-2.3c0.5-0.5,0.9-0.7,0.9-0.7s-1.1,1.1-2.4,3.3c-1.6,2.8-2.6,6-2.9,9.2c-0.1,1.8-0.2,3.6-0.1,5.4
		c0,1.5,0.2,2.9,0.5,4.4C135.1,65.6,135.4,66.9,135.5,68.3z"/>
	<path class="st1" d="M111.5,25.3c0.4,0.5,0.8,1.1,1.2,1.7c0.7,1.1,1.8,2.8,3,4.8c2.5,4.1,5.9,9.8,9.4,16.2s6.7,12.2,8.8,16.6
		c1.1,2.1,1.9,3.9,2.5,5.1c0.3,0.6,0.6,1.3,0.8,1.9c-0.4-0.6-0.7-1.2-1.1-1.8l-2.7-5c-2.2-4.2-5.4-10.1-8.9-16.4l-9.3-16.2
		c-1.1-2-2.1-3.7-2.8-4.9C112.1,26.6,111.8,25.9,111.5,25.3z"/>
	<path class="st0" d="M128.3,58.6c-5.6-5.4-13.4-7.7-21-6.2c-1.9,0.4-4,1.3-4.4,3.2s1.3,3.6,2.9,4.6c7.1,4.3,16.1,3.9,22.7-1.1"/>
	<path class="st1" d="M111.6,56.1c0.3-0.1,0.7-0.2,1.1-0.2c0.7-0.1,1.7-0.1,3-0.1c3.3-0.1,6.6,0.4,9.7,1.5c1.7,0.7,3.3,1.6,4.7,2.8
		c1.1,1,2.2,2.1,3,3.3c0.6,0.8,1,1.7,1.4,2.6c0.2,0.3,0.3,0.6,0.4,1c-0.1,0.1-0.8-1.4-2.2-3.4c-0.9-1.2-1.9-2.2-3-3.1
		c-1.4-1.1-2.9-2-4.6-2.6c-3.1-1.1-6.3-1.6-9.5-1.7C114.3,56.3,113,56.2,111.6,56.1z"/>
	<path class="st0" d="M345.5,384.7c-1.1-2.7-1.1-5.7,0-8.4c1.2-2.6,2.9-5,5.1-6.9c4.1-3.7,10.2-5.8,15.7-6.8
		c0.8,6.1-3.1,12.1-5.3,15C357.6,382.3,348.6,388.5,345.5,384.7"/>
	<path class="st0" d="M368.4,352.2c-1.7,2.8-4.7,4.6-8,4.5c-3.3-0.1-6.3-1.5-8.5-3.9c-1.1-1-1.8-2.4-1.8-3.9c0.3-1.4,1.2-2.5,2.6-3
		c1.3-0.4,2.7-0.5,4.1-0.2C361.5,346.5,365.9,348.2,368.4,352.2"/>
	<path class="st1" d="M381,346.4c-0.9,0.9-1.8,1.6-2.9,2.3c-1.1,0.8-2.3,1.4-3.5,1.9c-1.5,0.6-3.1,1.2-4.6,1.6
		c-2.9,0.8-6,0.8-8.9,0.2c-0.9-0.2-1.7-0.5-2.5-0.9c-0.6-0.3-0.9-0.5-0.8-0.5s1.3,0.6,3.5,1c2.9,0.5,5.8,0.4,8.6-0.3
		c1.5-0.4,3.1-0.9,4.6-1.5c1.2-0.4,2.4-1,3.5-1.7C378.9,347.6,379.9,346.9,381,346.4z"/>
	<path class="st1" d="M352,379.3c0.3-0.5,0.7-1,1.1-1.5c0.7-0.9,1.8-2.3,3.2-3.9c2.7-3.3,6.5-7.8,10.8-12.8s8.3-9.2,11.3-12.3
		c1.5-1.5,2.7-2.8,3.6-3.6c0.4-0.5,0.9-0.9,1.4-1.2c-0.4,0.5-0.8,1-1.2,1.4c-0.9,1-2,2.2-3.4,3.7c-2.9,3.1-6.9,7.5-11.2,12.4
		l-10.9,12.6l-3.3,3.8C352.9,378.5,352.5,378.9,352,379.3z"/>
	<path class="st0" d="M375,355.3c-2.8,6.3-2.5,13.5,1,19.5c0.9,1.5,2.3,3,4,2.8s2.6-2.1,3-3.8c1.5-7.2-1.5-14.6-7.6-18.8"/>
	<path class="st1" d="M377.8,370.1c0,0-0.2-0.3-0.5-0.9s-0.6-1.4-1-2.5c-1.1-2.8-1.6-5.7-1.6-8.6c0-1.6,0.4-3.3,0.9-4.8
		c0.5-1.2,1.1-2.4,1.9-3.5c0.5-0.7,1.1-1.4,1.8-2c0.5-0.4,0.7-0.6,0.8-0.6s-0.9,1-2.2,2.9c-0.7,1.1-1.3,2.2-1.7,3.4
		c-0.5,1.5-0.8,3-0.8,4.6c0,2.9,0.5,5.8,1.4,8.5C377.2,367.8,377.5,368.9,377.8,370.1z"/>
</g>
<g id="freepik--Stains--inject-44">
	<path class="st2" d="M48.5,161.3c-4.2-24.3,4.2-51.1,23.6-66.4s49.5-16.4,68.3-0.4c13.2,11.2,19.4,28.4,27.3,43.8
		s19.8,31.1,36.9,33.8c14.8,2.3,29.6-5.8,44.5-3.8c14.5,1.9,26.6,13.7,30.8,27.7s1,29.5-6.4,42.1s-19,22.3-31.6,29.7
		c-40.5,23.8-94.2,23-134-1.9s-63.8-73-60-119.8"/>
	<g class="st3">
		<path class="st4" d="M48.5,161.3c-4.2-24.3,4.2-51.1,23.6-66.4s49.5-16.4,68.3-0.4c13.2,11.2,19.4,28.4,27.3,43.8
			s19.8,31.1,36.9,33.8c14.8,2.3,29.6-5.8,44.5-3.8c14.5,1.9,26.6,13.7,30.8,27.7s1,29.5-6.4,42.1s-19,22.3-31.6,29.7
			c-40.5,23.8-94.2,23-134-1.9s-63.8-73-60-119.8"/>
	</g>
	<path class="st2" d="M283.1,378.8c13.1-9,19.3-28.8,11.1-42.4l0,0c-8.3-12.4-21.2-22.3-36-24.4s-31.1,4.9-37.7,18.3
		c-4.1,8.4-4.2,18.6-0.7,27.4c3.6,8.8,10,16.1,18.2,20.9C251.6,386.8,270,387.8,283.1,378.8z"/>
	<g class="st3">
		<path class="st4" d="M283.1,378.8c13.1-9,19.3-28.8,11.1-42.4l0,0c-8.3-12.4-21.2-22.3-36-24.4s-31.1,4.9-37.7,18.3
			c-4.1,8.4-4.2,18.6-0.7,27.4c3.6,8.8,10,16.1,18.2,20.9C251.6,386.8,270,387.8,283.1,378.8z"/>
	</g>
	<path class="st2" d="M710.1,295.9c-0.8-21-11.2-41.9-28.7-53.7s-41.8-13.4-59.8-2.4c-11.2,6.8-19.3,17.7-26.1,28.9
		c-3.7,6.2-7.6,13-14.2,15.6c-8.7,3.5-18.2-1.3-27.4-3.1c-22.2-4.4-44.1,9.1-50,30.9c-8,33.2,15.3,56.9,40.2,71.3
		c27.8,16.1,63,16.1,93.2,5.3c19.8-7,38.3-18.6,51.9-34.8S710.9,317,710.1,295.9z"/>
	<g class="st3">
		<path class="st4" d="M710.1,295.9c-0.8-21-11.2-41.9-28.7-53.7s-41.8-13.4-59.8-2.4c-11.2,6.8-19.3,17.7-26.1,28.9
			c-3.7,6.2-7.6,13-14.2,15.6c-8.7,3.5-18.2-1.3-27.4-3.1c-22.2-4.4-44.1,9.1-50,30.9c-8,33.2,15.3,56.9,40.2,71.3
			c27.8,16.1,63,16.1,93.2,5.3c19.8-7,38.3-18.6,51.9-34.8S710.9,317,710.1,295.9z"/>
	</g>
	<path class="st2" d="M662.3,116.1c-2.6-16.8-18.8-31.9-35.7-30.3l0,0c-15.8,2.3-31.3,10.2-40.1,23.4s-9.7,32.2,0.2,44.8
		c6.2,7.9,16,12.6,26,13.4c10.1,0.6,20.1-2.2,28.5-7.9C655.5,150.2,664.9,132.9,662.3,116.1z"/>
	<g class="st3">
		<path class="st4" d="M662.3,116.1c-2.6-16.8-18.8-31.9-35.7-30.3l0,0c-15.8,2.3-31.3,10.2-40.1,23.4s-9.7,32.2,0.2,44.8
			c6.2,7.9,16,12.6,26,13.4c10.1,0.6,20.1-2.2,28.5-7.9C655.5,150.2,664.9,132.9,662.3,116.1z"/>
	</g>
</g>
<g id="freepik--character-2--inject-44">
	<path class="st5" d="M466.5,120.3c2.2-0.3,3.9-1.9,5.9-2.8c3-1.4,6.5-1.2,9.4,0.5c2.8,1.7,4.8,3.7,5,7l-3.7,4"/>
	<path class="st6" d="M489.8,140.8l-5.9,35.4c-1,6-3.7,14.7-13.1,12.6l0,0c-8.1-2.4-8.9-10.5-7.9-16.2c0.5-2.7,0.8-4.9,0.8-5.2
		c0,0-8.9-2.4-8-11.4c0.4-4.4,2-13.3,3.5-21.3c1.6-8.6,9.6-14.6,18.3-13.7l0.9,0.1C487.6,122.7,491.5,131.5,489.8,140.8z"/>
	<path class="st7" d="M463.6,167.4c4.2,0.5,8.4-0.2,12.1-2.1c0,0-3.5,6.2-12.4,4.4L463.6,167.4z"/>
	<path class="st5" d="M459.9,140.2c0.2,0.2,1.4-0.3,3.1-0.1s2.8,0.9,3,0.8s-0.1-0.3-0.6-0.7c-0.7-0.4-1.6-0.7-2.4-0.8
		c-0.8-0.1-1.7,0-2.5,0.3C460,139.9,459.8,140.1,459.9,140.2z"/>
	<path class="st5" d="M473.6,141.7c0.2,0.2,1.4-0.3,3.1-0.1s2.8,0.9,3,0.8s-0.1-0.3-0.6-0.7c-0.7-0.4-1.6-0.7-2.4-0.8
		c-0.8-0.1-1.7,0-2.5,0.2C473.7,141.4,473.5,141.6,473.6,141.7z"/>
	<path class="st5" d="M473.3,143.9c-0.1,0.5,0.3,1,0.9,1.1c0.5,0.1,1-0.3,1.1-0.8c0.1-0.5-0.3-1-0.9-1.1
		C473.9,143.1,473.4,143.4,473.3,143.9z"/>
	<path class="st5" d="M460.3,142.5c-0.1,0.5,0.3,1,0.9,1.1c0.5,0.1,1-0.3,1.1-0.8c0.1-0.5-0.3-1-0.9-1.1
		C460.9,141.6,460.4,142,460.3,142.5z"/>
	<path class="st5" d="M468,150.8c-0.7-0.3-1.4-0.5-2.2-0.6c-0.4-0.1-0.7-0.2-0.7-0.4c0-0.4,0.1-0.7,0.4-1c0.4-0.8,0.9-1.7,1.3-2.6
		c1.2-2.2,2.2-4.5,3.1-6.8c-0.1-0.1-1.8,2.9-3.6,6.5l-1.2,2.6c-0.3,0.4-0.4,0.9-0.3,1.4c0.1,0.3,0.3,0.5,0.5,0.6
		c0.2,0.1,0.4,0.1,0.6,0.1C466.5,150.8,467.3,150.9,468,150.8z"/>
	<path class="st5" d="M475.3,135.7c0.1,0.4,1.3,0.3,2.7,0.6s2.5,0.9,2.8,0.6s-0.1-0.5-0.5-0.9c-0.6-0.5-1.3-0.8-2-1
		c-0.7-0.2-1.5-0.2-2.2,0C475.5,135.2,475.2,135.5,475.3,135.7z"/>
	<path class="st5" d="M460.6,135.9c0.1,0.3,1.3,0.2,2.7,0.4s2.6,0.6,2.8,0.3s-0.1-0.4-0.6-0.7c-1.3-0.8-2.8-1-4.2-0.6
		C460.8,135.5,460.6,135.7,460.6,135.9z"/>
	<path class="st6" d="M488.3,147.4c0.2-0.1,6.4-1.2,5.5,5s-6.8,4-6.8,3.9S488.3,147.4,488.3,147.4z"/>
	<path class="st7" d="M489.2,154.1c0,0,0.1,0.1,0.3,0.2c0.2,0.1,0.5,0.2,0.8,0.1c0.9-0.4,1.5-1.2,1.5-2.2c0.1-0.5,0.1-1.1-0.1-1.6
		c-0.1-0.4-0.3-0.8-0.7-0.9c-0.2-0.1-0.5,0-0.7,0.2c-0.1,0.2-0.1,0.3-0.1,0.3s-0.1-0.1,0-0.4c0.1-0.1,0.2-0.3,0.3-0.4
		c0.2-0.1,0.4-0.1,0.6-0.1c0.5,0.2,0.9,0.6,1,1.1c0.2,0.6,0.2,1.2,0.1,1.8c-0.1,1.1-0.9,2.1-1.9,2.4c-0.4,0.1-0.7,0-1-0.3
		C489.2,154.3,489.2,154.1,489.2,154.1z"/>
	<path class="st5" d="M457.4,132.7c3.9,1.5,8.4,1,11.9-1.4c2.4-1.6,4.4-4.1,7.2-4.7c1.9-0.3,3.9,0.2,5.5,1.4
		c1.6,1.2,2.9,2.7,3.8,4.4c-2.2,4.4-1.6,9.6-0.9,14.5c0,0.5,0.2,1.1,0.6,1.5c0.8,0.5,1.8,0.4,2.5-0.3c1.1-1.1,1.8-2.4,2.1-3.9
		c1-3.2,1.3-6.6,1-10c-0.3-3.4-1.7-6.6-3.8-9.2c-2.8-3.2-6.8-5.2-11-5.5c-4.2-0.3-8.5,0.7-12.1,2.9c-1.7,1-3.2,2.3-4.2,4"/>
	<path class="st5" d="M457.9,141.2c0.6-2.5,0.9-5.6,1.4-8.1c3.9,0.6,7.9-0.4,11.1-2.8c1.6-1.3,3.1-3,5-3.6c2.6-0.7,5.2,0.6,7.6,1.9
		l-0.1-0.1c1.2,0.8,2.2,1.9,3,3.1c-1.5,4.9-1.8,10-1.1,15c0.1,0.8,0.5,1.4,1.2,1.9c1.3,0.8,2.2-0.1,3.2-0.7c0.7-0.4,1.7-0.7,2.3-0.1
		c1.9-3.1,3.2-6.5,4.1-10c-0.4,1.3,0.4,2.7,1.7,3.1c1,0.3,2.1-0.1,2.7-0.9c-0.6-0.7-1-1.6-1.2-2.5c1.4,1.2,3.4,1,4.6-0.3
		c0,0,0,0,0.1-0.1l-2-2l2.8,0.1c-2.1-1.1-3.9-2.6-5.3-4.6c-1.4-1.9-3-3.6-4.9-5c-2-1.3-4.6-1.8-6.7-0.6c0.1-3.2-2.2-6.3-5.1-7.6
		c-3.6-1.4-7.4-1.8-11.2-1.1c-2.5,0.5-5,2-8.2,4.3c-1.5,1.1-3,2.3-4.3,3.7c-1.9,2.1-5.8,5.4-9.5,4.4l0.3,3.8c2,1.9,6.1,0.2,6.1,0.2
		s-2.4,2.4-4.6,2.3l0.6,3.3c0,0,3.4,0.6,4.9-2L457.9,141.2z"/>
	<path class="st8" d="M485.8,132.3c0,0-0.3-0.5-0.9-1.3c-0.8-1.1-1.9-2.1-3.1-2.9c-0.9-0.4-1.8-0.8-2.7-1c-1.1-0.3-2.2-0.4-3.2-0.1
		c-2.3,0.7-3.9,3-6.3,4.4c-2.2,1.4-4.9,2.2-7.5,2.2c-0.6,0-1.2,0-1.8-0.1c-0.2-0.1-0.5-0.1-0.7,0c-0.2,0.1-0.5,0.2-0.7,0.4
		c-0.8,0.6-1.4,1.3-1.9,2.1c-0.9,1.2-2.2,2-3.7,2.2c-0.4,0-0.8,0-1.2,0c-0.1,0-0.3,0-0.4-0.1c0-0.1,0.6,0,1.5-0.1
		c1.4-0.2,2.6-1,3.5-2.2c0.5-0.9,1.2-1.7,2-2.3c0.2-0.1,0.5-0.3,0.8-0.4c0.3-0.1,0.6-0.1,0.9-0.1c0.6,0.1,1.2,0.1,1.7,0.1
		c2.6,0,5.1-0.8,7.3-2.2c1.1-0.7,2.2-1.6,3.2-2.4c0.9-0.9,2.1-1.6,3.3-2c1.1-0.3,2.4-0.3,3.5,0.1c1,0.3,1.9,0.6,2.8,1.1
		c1.2,0.8,2.3,1.8,3.1,3.1c0.2,0.3,0.4,0.7,0.6,1C485.7,132.2,485.8,132.3,485.8,132.3z"/>
	<path class="st8" d="M495.5,137.7c0,0,0,0.2-0.2,0.5c-0.2,0.5-0.5,0.9-0.8,1.3c-0.5,0.6-1.3,1-2.1,0.9c-0.5-0.1-1-0.4-1.2-0.9
		c-0.3-0.5-0.3-1-0.3-1.6l0.5,0.1c-0.3,0.7-1,1.1-1.7,1.2c-0.7,0-1.3-0.2-1.8-0.7c-0.4-0.4-0.8-0.9-1-1.5c-0.3-0.9-0.4-1.9-0.4-2.9
		c0-0.9-0.1-1.7-0.3-2.6c0.5,0.8,0.7,1.7,0.7,2.6c0,0.9,0.2,1.8,0.5,2.7c0.2,0.5,0.5,0.9,0.9,1.3c0.4,0.4,0.9,0.6,1.5,0.6
		c0.6,0,1.1-0.4,1.3-0.9l0.8-2.1l-0.4,2.2c-0.2,0.8,0.3,1.7,1.1,1.9c0.7,0.1,1.4-0.2,1.8-0.7c0.3-0.3,0.6-0.7,0.9-1.1
		C495.3,137.9,495.5,137.7,495.5,137.7z"/>
	<path class="st8" d="M493.2,144.5c-0.5,0.3-1.1,0.5-1.7,0.4c-1.5-0.1-2.9-0.7-3.9-1.7c-1-1-1.8-2.2-2.4-3.6
		c-0.3-0.5-0.5-1.1-0.6-1.7c0.4,0.5,0.7,1,0.9,1.5c0.6,1.2,1.4,2.4,2.4,3.4c1,1,2.2,1.6,3.6,1.7
		C492.1,144.6,492.6,144.6,493.2,144.5z"/>
	<path class="st8" d="M492.9,145.6c-0.5,0.2-1,0.2-1.5,0.1c-1.2-0.1-2.4-0.5-3.5-1.2c-1.1-0.6-2-1.5-2.6-2.6
		c-0.3-0.4-0.5-0.9-0.6-1.4c0.3,0.4,0.6,0.8,0.9,1.2c0.7,0.9,1.6,1.7,2.6,2.4c1,0.6,2.1,1,3.3,1.2
		C491.9,145.5,492.4,145.5,492.9,145.6z"/>
	<path class="st8" d="M496.9,122.6c-0.5,0-1-0.1-1.5-0.2c-1.2-0.1-2.5-0.1-3.6,0.2c-1.2,0.3-2.3,0.8-3.3,1.5c-0.8,0.5-1.2,1-1.3,0.9
		c0.3-0.5,0.6-0.9,1-1.2c1-0.8,2.2-1.4,3.4-1.7c1.3-0.3,2.6-0.3,3.8-0.1C495.9,122.1,496.5,122.3,496.9,122.6z"/>
	<path class="st8" d="M488.5,117.3c1.2,2.7,0.7,5.9-1.3,8.2c0.6-1.3,1-2.6,1.3-4C488.7,120.1,488.7,118.7,488.5,117.3z"/>
	<path class="st8" d="M452.6,128.5c0.4,0.3,0.8,0.6,1.3,0.7c1.4,0.2,2.7,0.1,4-0.5c0.8-0.3,1.7-0.6,2.7-1c1-0.4,2-0.8,2.9-1.4
		c2-1.1,4-2.8,6.5-3.9c1.2-0.6,2.5-0.9,3.8-1c1.3-0.1,2.5,0.2,3.6,0.8c2.1,1.1,3.6,2.6,5.2,3.2c1.2,0.6,2.6,0.6,3.9,0.2
		c0.4-0.2,0.8-0.5,1.2-0.9c0,0,0,0.1-0.2,0.3c-0.2,0.3-0.6,0.5-0.9,0.7c-1.3,0.6-2.8,0.6-4.1,0c-1.7-0.6-3.2-2.2-5.3-3.2
		c-1.1-0.5-2.2-0.8-3.4-0.7c-1.3,0.1-2.5,0.5-3.7,1c-2.4,1.1-4.4,2.7-6.5,3.8c-1,0.6-2,1-3,1.4c-1,0.3-1.9,0.7-2.7,0.9
		c-1.3,0.5-2.8,0.6-4.1,0.3c-0.4-0.1-0.7-0.3-1-0.6C452.8,128.7,452.7,128.6,452.6,128.5z"/>
	<path class="st8" d="M487.5,124.9c-0.7-0.8-1.5-1.6-2.4-2.4c-2.1-1.7-4.6-2.9-7.3-3.2c-1.5-0.1-3-0.1-4.5,0.1
		c-1.2,0.1-2.5,0.1-3.7,0.1c-0.8-0.1-1.7-0.2-2.5-0.5c-0.3-0.1-0.6-0.2-0.8-0.4c1.1,0.4,2.2,0.6,3.3,0.6c1.2,0,2.5,0,3.7-0.2
		c1.5-0.2,3-0.2,4.6-0.1c2.8,0.3,5.4,1.5,7.5,3.4c0.6,0.6,1.2,1.2,1.7,1.9C487.2,124.4,487.3,124.7,487.5,124.9z"/>
	<path class="st5" d="M468.7,155.3c0-0.2,1.2-0.3,2.3-1.3c0.4-0.4,0.8-0.9,1.1-1.4c0.3-0.4,0.5-0.7,0.5-0.6s0,0.3-0.2,0.8
		c-0.2,0.6-0.6,1.2-1.1,1.6c-0.5,0.5-1.1,0.8-1.8,0.9C469,155.4,468.7,155.4,468.7,155.3z"/>
	<path class="st2" d="M629.6,327.2l16.4-9.3c0,0,14.9,13.5,18.1,12.1l-16.9-32.4L621.2,311L629.6,327.2z"/>
	<g class="st9">
		<path class="st4" d="M639.4,308.6c-0.1-0.7,0.3-1.5,1-1.7c0.7-0.2,1.5,0.3,1.7,1c0.2,0.8-0.3,1.6-1.1,1.8
			c-0.8,0.1-1.5-0.5-1.6-1.2"/>
	</g>
	<g class="st9">
		<path class="st4" d="M647.3,297.6l-2.6,1.5l17.1,30.5c0,0,1.4,1.1,2.3,0.4L647.3,297.6z"/>
	</g>
	<path class="st5" d="M646.1,318.5c0.2-0.1-0.2-0.9-0.1-2s0.5-1.8,0.4-1.9s-0.9,0.6-1,1.9S646,318.6,646.1,318.5z"/>
	<path class="st5" d="M649.3,321.2c0.2,0,0.1-0.9,0.5-1.8s1-1.4,0.9-1.6s-1,0.2-1.5,1.3S649.1,321.2,649.3,321.2z"/>
	<path class="st5" d="M654.3,321c0-0.2-0.9,0-1.6,0.9s-0.6,1.8-0.4,1.8s0.4-0.7,0.9-1.4S654.4,321.1,654.3,321z"/>
	<path class="st5" d="M642.1,320.2c0.1-0.1-0.5-0.8-0.9-1.7s-0.5-1.8-0.7-1.8s-0.4,1,0.1,2S642,320.3,642.1,320.2z"/>
	<g class="st10">
		<polygon points="632.9,325.3 635.8,323.7 627.4,307.8 624.7,309.2 		"/>
	</g>
	<path class="st5" d="M638.8,322c0.1,0-0.2-0.7-0.8-1.6c-0.4-0.5-0.9-1-1.4-1.4c-0.3-0.2-0.7-0.5-1-0.7c-0.2-0.1-0.4-0.2-0.6-0.3
		c-0.3-0.1-0.7,0.1-0.9,0.4c-0.1,0.3-0.1,0.6,0,0.9c0.1,0.2,0.2,0.4,0.4,0.6c0.3,0.3,0.6,0.6,0.9,0.8c0.5,0.4,1.1,0.8,1.8,1
		c0.6,0.3,1.2,0.4,1.8,0.3c0-0.1-0.7-0.2-1.6-0.7c-0.6-0.3-1.1-0.6-1.6-1c-0.3-0.2-0.5-0.5-0.8-0.8c-0.3-0.3-0.4-0.6-0.3-0.8
		s0.1-0.1,0.2-0.1c0.2,0.1,0.3,0.1,0.5,0.2c0.3,0.2,0.6,0.4,0.9,0.6c0.5,0.4,1,0.8,1.4,1.2C638.3,321.5,638.7,322.1,638.8,322z"/>
	<path class="st5" d="M638.9,321.7c-0.6-0.1-1.3,0.1-1.8,0.4c-0.6,0.3-1.2,0.7-1.7,1.1c-0.3,0.3-0.5,0.6-0.8,0.9
		c-0.3,0.4-0.4,1-0.3,1.5c0.2,0.3,0.5,0.5,0.8,0.4c0.2,0,0.5-0.1,0.7-0.1c1.1-0.4,1.9-1.1,2.4-2.1c0.3-0.5,0.4-1.2,0.3-1.8
		c-0.1,0-0.1,0.7-0.7,1.6c-0.3,0.5-0.8,1-1.3,1.3c-0.3,0.2-0.6,0.4-1,0.5c-0.4,0.1-0.7,0.1-0.8,0c-0.1-0.3,0-0.6,0.2-0.9
		c0.2-0.3,0.4-0.6,0.7-0.9c0.4-0.5,0.9-0.8,1.5-1.2C638.3,321.9,638.9,321.8,638.9,321.7z"/>
	<path class="st2" d="M583,352.7l18.6-3c0,0,9.3,17.9,12.8,17.6l-4.6-36.2l-29.1,3.6L583,352.7z"/>
	<g class="st9">
		<path class="st4" d="M598.5,338.6c0.1-0.8,0.8-1.3,1.5-1.2c0.8,0.1,1.3,0.8,1.2,1.5c-0.1,0.8-0.8,1.4-1.7,1.3
			c-0.8-0.2-1.3-1-1.1-1.7"/>
	</g>
	<g class="st9">
		<path class="st4" d="M609.7,331l-2.9,0.5l5.5,34.6c0,0,0.9,1.5,2,1.2L609.7,331z"/>
	</g>
	<path class="st5" d="M601.4,350.2c0.2,0,0.2-0.9,0.6-1.9s1.2-1.5,1.1-1.7s-1.1,0.2-1.6,1.4S601.3,350.3,601.4,350.2z"/>
	<path class="st5" d="M603.5,353.8c0.2,0,0.4-0.8,1-1.5s1.4-1,1.4-1.1s-1-0.2-1.9,0.7S603.3,353.9,603.5,353.8z"/>
	<path class="st5" d="M608.3,355.4c0-0.2-0.9-0.3-1.8,0.3s-1.2,1.5-1,1.5s0.6-0.5,1.4-1S608.3,355.6,608.3,355.4z"/>
	<path class="st5" d="M597.1,350.5c0.2-0.1-0.2-0.9-0.2-1.9s0.2-1.8,0-1.9s-0.7,0.8-0.6,1.9S597,350.6,597.1,350.5z"/>
	<g class="st10">
		<polygon points="586.6,352.1 590,351.5 587.5,333.8 584.5,334.1 		"/>
	</g>
	<path class="st5" d="M593.4,351c0.1-0.6,0-1.2-0.2-1.8c-0.2-0.6-0.5-1.2-0.8-1.8c-0.2-0.3-0.4-0.7-0.7-1c-0.1-0.2-0.3-0.4-0.5-0.5
		c-0.3-0.2-0.7-0.2-1,0c-0.2,0.2-0.3,0.5-0.3,0.8c0,0.2,0.1,0.5,0.2,0.7c0.1,0.4,0.3,0.7,0.5,1.1c0.4,0.6,0.8,1.1,1.3,1.5
		c0.4,0.4,1,0.8,1.6,0.9c0-0.1-0.5-0.4-1.3-1.2c-0.4-0.5-0.8-1-1.1-1.5c-0.2-0.3-0.3-0.7-0.5-1c-0.2-0.4-0.2-0.7,0-0.8s0.1,0,0.2,0
		c0.1,0.1,0.3,0.2,0.4,0.4c0.2,0.3,0.5,0.6,0.7,0.9c0.3,0.5,0.6,1.1,0.9,1.7C592.9,349.9,593.1,350.5,593.4,351z"/>
	<path class="st5" d="M593.6,350.8c-0.6-0.3-1.2-0.4-1.8-0.2c-0.7,0.1-1.4,0.2-2,0.5c-0.4,0.2-0.7,0.4-1,0.6
		c-0.5,0.3-0.8,0.7-0.8,1.3c0,0.3,0.3,0.6,0.6,0.7c0.2,0.1,0.5,0.1,0.7,0.1c0.4,0,0.8,0,1.2-0.1c0.7-0.2,1.3-0.5,1.8-1
		c0.8-0.8,1-1.6,0.9-1.6s-0.3,0.6-1.2,1.3c-0.5,0.4-1,0.7-1.6,0.8c-0.3,0.1-0.7,0.1-1,0.1c-0.4,0-0.7-0.1-0.7-0.3s0.2-0.5,0.5-0.7
		c0.3-0.2,0.6-0.4,0.9-0.6c0.6-0.3,1.1-0.5,1.8-0.6C592.9,350.8,593.6,350.8,593.6,350.8z"/>
	<path class="st5" d="M506.7,252.5c-0.6,0.2,8.8,9.2,10.3,15.4c1.8,7.4,6.8,15.8,6.8,15.8l34.6,33.2l65.2-9.5l11,20.1L556,348.7
		c-4.2,1.1-8.8,0.3-12.3-2.3L493,308.6l-29.1-36L506.7,252.5z"/>
	<path class="st5" d="M459.1,275.4l4.2,15.4c11.8,24.3,34.2,70.4,40.2,73.4c8.3,4.1,84.2-11,84.2-11l-1.7-20.9l-63.8,5.5l-42.6-74.9
		L459.1,275.4z"/>
	<path class="st8" d="M629.6,328.7c0,0-0.1,0.1-0.4,0.1l-1.3,0.4l-4.9,1.4l-18.2,5.2l-27,7.7l-15.9,4.5c-1.4,0.4-2.8,0.8-4.2,1.2
		c-4.5,1.1-9.1,0.6-13.3-1.5c-1.4-0.7-2.7-1.5-3.9-2.4l-3.5-2.8c-2.3-1.8-4.6-3.7-6.8-5.5c-4.4-3.7-8.7-7.2-12.6-10.8
		c-7.9-7-14.8-13.6-20.4-19.2s-9.9-10.5-12.7-14l-1.9-2.3c-0.5-0.7-0.9-1.3-1.3-1.8l-0.8-1.1c-0.2-0.2-0.2-0.4-0.2-0.4
		s0.1,0.1,0.3,0.4s0.5,0.6,0.8,1.1s0.8,1.1,1.3,1.7l1.9,2.3c2.8,3.4,7.1,8.2,12.8,13.9S510,319,517.9,326c4,3.5,8.2,7.1,12.6,10.7
		c2.2,1.8,4.5,3.6,6.8,5.5l3.5,2.7c1.2,0.9,2.4,1.7,3.8,2.4c4,1.9,8.6,2.4,12.9,1.4c1.4-0.4,2.8-0.8,4.2-1.2l15.9-4.5l27-7.5
		l18.2-5.1l5-1.4l1.3-0.3L629.6,328.7z"/>
	<path class="st8" d="M480.4,276.4c0,0.1-0.4,0.3-0.5,1c0,0.4,0.1,0.7,0.3,1c0.5,0.4,1.2,0.3,1.6-0.2c0.2-0.2,0.2-0.4,0.3-0.7
		c0-0.4-0.2-0.7-0.5-0.9C480.9,276.2,480.5,276.4,480.4,276.4c0-0.1,0.1-0.2,0.4-0.2c0.3-0.1,0.6,0,0.9,0.2c0.4,0.2,0.8,0.7,0.8,1.2
		c0,0.9-0.7,1.6-1.5,1.6c-0.4,0-0.8-0.2-1.1-0.4c-0.3-0.4-0.4-0.9-0.3-1.4c0.1-0.3,0.3-0.6,0.5-0.8
		C480.2,276.3,480.4,276.3,480.4,276.4z"/>
	<path class="st8" d="M513.6,267.3c-0.2,0.2-0.4,0.4-0.6,0.6c-0.6,0.5-1.2,1-1.8,1.4c-2.2,1.4-4.6,2.2-7.1,2.4
		c-2.5,0.2-5.1-0.2-7.4-1.2c-0.7-0.3-1.4-0.7-2-1.1c-0.2-0.1-0.5-0.3-0.7-0.5c0-0.1,1,0.6,2.8,1.3c4.7,1.8,9.9,1.4,14.2-1.1
		C512.7,268.1,513.5,267.3,513.6,267.3z"/>
	<path class="st8" d="M572.4,212c0,0-45.3-17-48.1-19.5s-14.7-16-19.7-17.8c0,0-8.1-2.1-13.6-1.8l-5.8,0.7v-4.4l-23.9,0.4l-0.7,5.9
		l-4.1,1.5c0,0-9.6,20-9.6,29.1s-4.7,62.5,4.6,72.8c1.4,1.6,7,0.6,7,0.6s26.8-2.9,53.5-21.5l-9.8-11.3c0,0-3.4-23.6,0.6-40.5
		c0.1-0.4,0.2-0.7,0.3-1.1c11.5,5.7,29.3,14,34.5,14c0,0,29.2,9.9,34.6,3.5C573.1,221.9,572.4,212,572.4,212z"/>
	<path class="st8" d="M461.3,176.2c0,0-9.4,0.4-15.4,7.9s-16,39.9-16,39.9l-13.6-14l-13,7.2c0,0,18.4,25.6,22,28.6
		c2,1.4,4.3,2.3,6.6,2.8c8.7,0.8,14.6-8.1,16.4-15.5l6-30.1"/>
	<path class="st6" d="M407.2,215l-14-8.3c0,0-4.2-10-2.6-10.5s3,5.6,3,5.6l2,1c0,0-2.7-5.1-1.8-5.6s2.3,1,3,2.2
		c0.6,0.9,2.4,4.6,2.4,4.6l0.9-1.3l-0.7-3.4c0,0-1-2.3,0.1-2.3s1.1-0.1,1.9,1.8s1.4,3.3,1.4,3.3s4.1,2.4,5,2.1
		c1.3-0.4,2.8-0.3,4,0.3c0,0,3.9,2,2.9,6.1"/>
	<path class="st5" d="M501.9,177.5c0.1,0-0.3,1-0.8,2.5c-1.2,4.1-1.4,8.3-0.7,12.5c0.3,1.6,0.5,2.6,0.5,2.6
		c-0.4-0.8-0.6-1.6-0.8-2.5c-0.5-2.1-0.6-4.2-0.5-6.4c0.1-2.1,0.5-4.2,1.2-6.3C501,179,501.4,178.2,501.9,177.5z"/>
	<path class="st5" d="M464.4,176.2c-0.3-1.1-0.4-2.3-0.2-3.4c0-1.1,0.1-2.3,0.5-3.4c0.1,1.1,0.1,2.3,0,3.4
		C464.7,174,464.6,175.1,464.4,176.2z"/>
	<path class="st5" d="M470,177.1c-0.1-1.3-0.1-2.6,0.1-3.8c0-1.3,0.2-2.5,0.6-3.8c0.1,1.3,0.1,2.6-0.1,3.8
		C470.5,174.6,470.3,175.9,470,177.1z"/>
	<path class="st5" d="M477.4,176.9c-0.1,0,0.2-1.7,0.3-3.7s0-3.7,0.2-3.7C478.6,171.9,478.4,174.5,477.4,176.9z"/>
	<path class="st5" d="M482.9,175.5c-0.1,0,0.1-1.4,0-3.1s-0.3-3.1-0.1-3.1c0.5,1,0.7,2,0.6,3.1C483.5,173.5,483.3,174.5,482.9,175.5
		z"/>
	<path class="st5" d="M447.6,188.4c0.1,0,0,13.1-0.3,29.2s-0.7,29.2-0.8,29.2s0-13.1,0.3-29.2S447.5,188.4,447.6,188.4z"/>
	<path class="st11" d="M446.7,219.1c-0.7-0.3-1.4-0.7-2-1.1c-1.5-1-3.1-1.8-4.8-2.4c-1.7-0.6-3.4-0.9-5.2-0.8
		c-1.4,0.1-2.2,0.5-2.2,0.4c0.6-0.4,1.4-0.7,2.1-0.7c1.8-0.2,3.7,0,5.4,0.6c1.7,0.7,3.3,1.5,4.8,2.6
		C445.6,218.1,446.2,218.6,446.7,219.1z"/>
	<path class="st11" d="M501.4,209.9c-0.1,0.1-0.3,0.2-0.5,0.3l-1.4,0.8c-0.6,0.4-1.4,0.8-2.2,1.2s-1.9,1-3,1.4s-2.4,1-3.8,1.5
		s-2.9,1-4.4,1.5c-3.4,1-6.9,1.8-10.4,2.4c-3.5,0.5-7.1,0.8-10.7,0.9c-1.6,0-3.2,0-4.7-0.1s-2.8-0.2-4.1-0.3s-2.3-0.3-3.3-0.5
		s-1.8-0.3-2.5-0.5l-1.6-0.4c-0.2,0-0.4-0.1-0.5-0.1c0.2,0,0.4,0,0.6,0l1.6,0.3c0.7,0.1,1.5,0.3,2.5,0.4s2.1,0.3,3.3,0.4
		s2.6,0.2,4,0.3s3,0.1,4.6,0.1c7.1-0.1,14.2-1.2,21-3.3c1.6-0.5,3-0.9,4.4-1.5s2.6-1,3.8-1.5s2.1-1,3-1.4s1.6-0.8,2.3-1.1l1.4-0.7
		C501,210.1,501.2,210,501.4,209.9z"/>
	<path class="st11" d="M527.7,195.5c0,0.1-0.8,0.6-2,1.7c-1.6,1.4-3,3-4.3,4.7c-1.2,1.7-2.2,3.6-3,5.6c-0.6,1.5-0.8,2.5-0.9,2.5
		c0-0.2,0-0.5,0.1-0.7c0.1-0.6,0.3-1.3,0.5-1.9c1.4-4.1,3.9-7.8,7.3-10.4c0.5-0.4,1-0.8,1.6-1.1
		C527.4,195.5,527.7,195.4,527.7,195.5z"/>
	<path class="st11" d="M532.7,197c0,0.1-1,0.5-2.5,1.5c-3.9,2.6-6.9,6.3-8.5,10.6c-0.6,1.7-0.8,2.8-0.9,2.7s0-0.3,0.1-0.8
		c0.1-0.7,0.3-1.4,0.5-2.1c1.5-4.5,4.6-8.4,8.7-10.8c0.6-0.4,1.2-0.7,1.9-1C532.2,197.1,532.5,197,532.7,197z"/>
	<path class="st11" d="M501.7,205.8c-0.2,0.1-0.3,0.2-0.5,0.2l-1.5,0.6c-0.6,0.3-1.4,0.6-2.4,0.9s-2,0.7-3.2,1.1
		c-2.4,0.8-5.2,1.5-8.4,2.3s-6.8,1.3-10.5,1.8s-7.4,0.6-10.6,0.7s-6.2-0.1-8.7-0.3c-1.2-0.1-2.3-0.2-3.3-0.3s-1.8-0.2-2.5-0.3
		l-1.6-0.2c-0.2,0-0.4,0-0.6-0.1c0.2,0,0.4,0,0.6,0l1.6,0.1c0.7,0.1,1.5,0.2,2.5,0.2s2.1,0.2,3.3,0.2c2.5,0.2,5.4,0.2,8.7,0.2
		s6.8-0.3,10.6-0.7s7.3-1.1,10.5-1.7s6-1.4,8.4-2.1c1.2-0.3,2.2-0.7,3.2-1s1.7-0.6,2.4-0.8l1.5-0.5
		C501.3,205.9,501.5,205.9,501.7,205.8z"/>
	<path class="st11" d="M447.2,211.5c-1.7-1.1-3.5-2.1-5.3-2.9c-1.9-0.7-3.9-1.2-5.9-1.5c0.6-0.1,1.2-0.1,1.8,0
		c1.5,0.1,2.9,0.5,4.2,1c1.4,0.5,2.6,1.2,3.8,2.1C446.4,210.6,446.8,211,447.2,211.5z"/>
	<path class="st6" d="M587.4,208.2l-9.9,3.3l-5,0.4v10.7l5.1,1.8l13.8-0.8c0,0,7.9,4,9.9,3.8s2-0.9,2-0.9l-9.8-5.9
		c1.3-0.3,2.6-0.1,3.8,0.5c2.2,1,6.1,3.3,7.5,2.6s1.1-1.1,1.1-1.1l-7.7-4.8c0,0,6.5,2.9,7.7,2.4c0.6-0.3,1.1-0.8,1.2-1.5l-4.3-3.8
		l-6.4-5L587.4,208.2z"/>
	<path class="st7" d="M581.9,212.6c0.4,0.1,0.7,0.3,1.1,0.5c0.7,0.3,1.6,0.8,2.8,1.4s2.6,1.3,4.2,2.2c0.4,0.2,0.8,0.5,1.1,0.9
		c0.3,0.4,0.5,0.9,0.6,1.4c0.1,0.5-0.1,1.1-0.3,1.6c-0.3,0.5-0.8,0.8-1.4,0.9c-0.7,0.2-1.5,0.2-2.2,0c-0.7-0.2-1.3-0.4-1.9-0.7
		c-1.2-0.5-2.3-1-3.3-1.5l0.3-0.1c-0.6,0.8-1.4,1.4-2.3,1.8c-0.7,0.3-1.5,0.4-2.2,0.4c-0.5,0-1-0.1-1.4-0.2
		c-0.3-0.1-0.5-0.2-0.5-0.2c0.6,0.1,1.3,0.2,1.9,0.2c0.7,0,1.4-0.2,2.1-0.5c0.8-0.4,1.6-1,2.1-1.8l0.1-0.1l0.2,0.1
		c1,0.5,2.1,1,3.3,1.5c0.6,0.3,1.2,0.5,1.8,0.6c0.6,0.1,1.3,0.1,1.9,0c0.4-0.1,0.8-0.3,1.1-0.7c0.2-0.4,0.3-0.8,0.3-1.2
		c-0.1-0.9-0.7-1.6-1.5-2c-1.5-0.9-2.9-1.6-4.1-2.3l-2.8-1.5C582.5,213.1,582.2,212.9,581.9,212.6z"/>
	<path class="st7" d="M598.7,217.8c-1.6-0.7-3-1.6-4.4-2.7c-0.3-0.2-0.6-0.5-0.9-0.8h0.3c-0.9,0.5-1.8,0.7-2.8,0.8
		c-0.4,0.1-0.8,0-1.1-0.1c0-0.1,0.4-0.1,1.1-0.2c0.9-0.1,1.8-0.4,2.6-0.9l0.2-0.1l0.1,0.1c0.2,0.2,0.5,0.5,0.8,0.7
		C596.1,215.7,597.5,216.7,598.7,217.8z"/>
	<path class="st2" d="M615.6,294.5c-2,0-4-0.3-5.9-0.9c-19-5.7-18-19.4-17.2-30.4c0.7-10.3,0.8-16.7-7.7-19.9
		c-11.2-4.2-15.8-0.1-22.8,6.1c-8.3,7.4-18.7,16.5-43.8,12.8c-13-1.9-34-8.8-59.7-30.6c-9.2-7.7-17.6-16.2-25.3-25.4l3.9-3.1
		c0.4,0.5,38.8,47.8,81.9,54.2c22.8,3.4,31.8-4.6,39.7-11.6c7.1-6.3,13.8-12.2,27.9-7c12.4,4.6,11.6,15.4,10.9,24.9
		c-0.8,11.1-1.5,20.7,13.7,25.3c17.1,5.1,39.6-22,53-38.2c4.8-5.8,8.1-10,10.8-12.1l3.8,3c-1.7,2-6.3,7-10.7,12.3
		C654.3,270.4,634.3,294.5,615.6,294.5z"/>
	<path class="st4" d="M545.1,255.1c0,0-0.2,0.2-0.6,0.4c-0.6,0.4-1.1,0.7-1.8,1c-2,1-4.1,1.7-6.3,2.2c-2.2,0.4-4.4,0.6-6.6,0.5
		c-0.7,0-1.3-0.1-2-0.2c-0.2,0-0.5-0.1-0.7-0.2c0-0.1,1.1,0,2.7,0c4.4,0,8.7-0.9,12.8-2.6C544.2,255.5,545.1,255,545.1,255.1z"/>
	<path class="st4" d="M574.4,240c-0.5,0-1.1,0-1.6-0.1c-2.6,0-5.2,0.8-7.2,2.5c-0.4,0.4-0.8,0.7-1.2,1c0.2-0.5,0.6-1,1-1.3
		c2-1.9,4.7-2.8,7.4-2.6C573.3,239.6,573.9,239.8,574.4,240z"/>
	<path class="st4" d="M606.2,287.2c-0.8-0.1-1.5-0.3-2.2-0.7c-3.5-1.6-6.2-4.6-7.6-8.2c-0.3-0.7-0.5-1.5-0.5-2.3
		c0.1,0,0.3,0.9,0.8,2.2c0.7,1.7,1.7,3.3,3,4.6c1.3,1.4,2.7,2.5,4.4,3.4C605.4,286.9,606.3,287.2,606.2,287.2z"/>
	<path class="st4" d="M675.9,240.4c-2.4,2.9-5,5.5-7.9,7.9C670.4,245.4,673,242.8,675.9,240.4z"/>
	<path class="st2" d="M437.6,207.3L437.6,207.3c-2.1,2.3-5.8,2.5-8.1,0.4l-8.8-8l7.7-8.5l8.8,8C439.6,201.3,439.7,204.9,437.6,207.3
		z"/>
	<path class="st5" d="M437.6,207.3c0.3-0.4,0.6-0.9,0.8-1.3c0.6-1.3,0.7-2.8,0.3-4.2c-0.3-1-0.8-1.8-1.6-2.5l-2.6-2.4
		c-1.9-1.7-4-3.6-6.2-5.6h0.3l-3.9,4.3l-3.9,4.2v-0.3l6.1,5.6l2.6,2.4c0.7,0.7,1.6,1.1,2.6,1.4c1.4,0.3,2.9,0.1,4.1-0.7
		C436.8,207.9,437.2,207.6,437.6,207.3c-0.3,0.4-0.7,0.8-1.2,1.1c-1.3,0.8-2.8,1.1-4.3,0.8c-1-0.2-2-0.7-2.8-1.4
		c-0.8-0.7-1.7-1.5-2.6-2.4l-6.2-5.6l-0.2-0.2l0.2-0.2l3.9-4.3l3.9-4.2l0.2-0.2l0.2,0.2l6.1,5.6l2.6,2.4c0.8,0.7,1.3,1.6,1.6,2.6
		c0.4,1.4,0.3,3-0.4,4.3C438.3,206.5,438,206.9,437.6,207.3z"/>
	<path class="st2" d="M393.2,159.2l-15.1-12.5c-1.2-1-1.4-2.7-0.4-3.9c0,0,0,0,0,0l0,0c1-1.2,2.7-1.4,3.9-0.4c0,0,0,0,0,0l15.1,12.5
		L393.2,159.2z"/>
	<path class="st2" d="M379,177.5L363.9,165c-1.2-1-1.4-2.7-0.4-3.9c0,0,0,0,0,0l0,0c1-1.2,2.7-1.4,3.9-0.4c0,0,0,0,0,0l15.1,12.5
		L379,177.5z"/>
	<g class="st9">
		<path class="st4" d="M393.2,159.2l-15.1-12.5c-1.2-1-1.4-2.7-0.4-3.9c0,0,0,0,0,0l0,0c1-1.2,2.7-1.4,3.9-0.4c0,0,0,0,0,0
			l15.1,12.5L393.2,159.2z"/>
	</g>
	<g class="st9">
		<path class="st4" d="M379,177.5L363.9,165c-1.2-1-1.4-2.7-0.4-3.9c0,0,0,0,0,0l0,0c1-1.2,2.7-1.4,3.9-0.4c0,0,0,0,0,0l15.1,12.5
			L379,177.5z"/>
	</g>
	<path class="st5" d="M393.2,159.2c0.1-0.1,0.1-0.2,0.2-0.3l0.7-0.9l2.5-3.2v0.2l-7.1-5.8l-4.5-3.7l-2.4-2l-1.2-1
		c-0.4-0.3-0.8-0.5-1.3-0.6c-0.8-0.1-1.7,0.2-2.2,0.9c-0.5,0.6-0.7,1.5-0.5,2.3c0.1,0.4,0.3,0.7,0.5,1c0.3,0.3,0.6,0.6,0.9,0.8
		l1.9,1.6l6.5,5.4l4.4,3.7l1.2,1c0.2,0.1,0.3,0.3,0.4,0.4c-0.1-0.1-0.3-0.2-0.4-0.3l-1.2-1c-1.1-0.9-2.6-2.1-4.5-3.6l-6.7-5.4
		l-1.9-1.6c-0.4-0.3-0.7-0.6-1-0.9c-1.1-1.2-1.1-3.1,0.2-4.2c0.7-0.6,1.6-0.9,2.5-0.8c0.6,0.1,1.1,0.3,1.6,0.7l1.2,1l2.4,2l4.4,3.7
		l7,5.9l0.1,0.1l-0.1,0.1l-2.7,3.2l-0.7,0.8C393.4,159,393.3,159.1,393.2,159.2z"/>
	<path class="st5" d="M379,177.5c0.1-0.1,0.1-0.2,0.2-0.3c0.2-0.2,0.4-0.5,0.7-0.9l2.5-3.2v0.2l-7.1-5.8l-4.5-3.6l-2.4-2l-1.2-1
		c-0.4-0.3-0.8-0.5-1.3-0.6c-0.8-0.1-1.7,0.2-2.2,0.9c-0.5,0.6-0.7,1.5-0.5,2.3c0.1,0.4,0.3,0.7,0.5,1c0.3,0.3,0.6,0.6,0.9,0.8
		l1.9,1.6l6.5,5.4l4.4,3.7l1.2,1C378.7,177.2,378.9,177.3,379,177.5c0-0.1-0.2-0.2-0.4-0.4l-1.2-1l-4.5-3.6l-6.6-5.4l-1.9-1.6
		c-0.4-0.3-0.7-0.6-1-0.9c-0.3-0.4-0.5-0.8-0.6-1.2c-0.2-1,0-2,0.6-2.7c0.7-0.8,1.7-1.1,2.7-1c0.6,0.1,1.1,0.3,1.6,0.7
		c0.4,0.4,0.8,0.7,1.2,1l2.4,2l4.4,3.7l7,5.9l0.1,0.1l-0.1,0.1c-1.1,1.3-2,2.4-2.7,3.1l-0.7,0.8C379.1,177.4,379,177.5,379,177.5z"
		/>
	<path class="st2" d="M427.6,175.1l0.4-0.5c1.9-2.3,1.6-5.6-0.7-7.5c-1.9-1.6-4.8-1.6-6.7-0.1l-22.2-18.5l-25.4,30.3l22.7,18
		c-1.5,2.3-1,5.3,1.1,7l0,0c2.2,1.8,5.5,1.6,7.4-0.6c6.7,5,16.1,3.8,21.3-2.7l3.6-4.5C434.3,189.7,433.6,180.6,427.6,175.1z"/>
	<path class="st5" d="M427.6,175.1l0.2,0.2l0.5,0.5c0.3,0.3,0.6,0.6,0.8,0.9l0.5,0.6l0.5,0.7c0.9,1.3,1.6,2.7,2,4.2
		c1.3,4.5,0.5,9.5-2.2,13.3c-0.8,1.1-1.8,2.2-2.7,3.4c-0.9,1.3-2,2.4-3.1,3.5c-2.5,2.4-5.8,3.8-9.3,4.1c-3.8,0.3-7.7-0.8-10.7-3.1
		h0.3c-0.9,1.1-2.2,1.7-3.6,1.9c-1.5,0.2-3-0.3-4.1-1.2l0,0l0,0c-2.2-1.8-2.7-4.9-1.1-7.3l0,0.3l-17.6-14l-5.1-4.1l-0.2-0.1l0.2-0.2
		c9.2-11,17.9-21.3,25.4-30.3l0.1-0.2l0.2,0.1l22.1,18.5h-0.2c2.4-1.9,5.8-1.5,7.7,0.9c0.8,1,1.2,2.2,1.2,3.4c0,1.1-0.4,2.1-1,3
		c-0.2,0.2-0.3,0.4-0.5,0.6L427.6,175.1c0-0.1,0.2-0.4,0.6-0.9c0.6-0.9,0.9-1.9,0.9-3c0-1.7-0.8-3.3-2.2-4.3c-0.9-0.6-1.9-1-3-1
		c-1.2,0-2.4,0.4-3.3,1.1l-0.1,0.1l-0.1-0.1l-22.2-18.4h0.3L373.3,179v-0.4l5.1,4.1l17.5,14l0.2,0.1L396,197c-1.4,2.2-1,5,1,6.7l0,0
		c2.1,1.8,5.3,1.5,7.1-0.6l0.1-0.1l0.2,0.1c5.9,4.4,14.1,4,19.5-1c1.1-1.1,2.1-2.2,3-3.5c0.9-1.2,1.9-2.3,2.7-3.4
		c3.7-5.1,3.8-11.9,0.4-17.2c-0.2-0.3-0.3-0.5-0.5-0.7l-0.5-0.6c-0.2-0.3-0.5-0.6-0.8-0.9l-0.5-0.5
		C427.7,175.1,427.6,175.1,427.6,175.1z"/>
	
		<rect x="391.2" y="160.6" transform="matrix(0.6373 -0.7706 0.7706 0.6373 11.024 364.9349)" class="st1" width="4" height="20.3"/>
	<path class="st5" d="M427.6,175.1c-0.2,0.4-0.5,0.8-0.8,1.2c-0.6,0.8-1.4,1.8-2.4,3.1c-2.1,2.6-5,6.2-8.3,10s-6.2,7.3-8.4,10
		l-2.5,3c-0.3,0.4-0.6,0.7-1,1.1c0.2-0.4,0.5-0.8,0.8-1.2c0.6-0.8,1.4-1.8,2.4-3.1c2.1-2.6,5-6.2,8.3-10l8.4-10l2.5-3
		C426.9,175.8,427.3,175.4,427.6,175.1z"/>
	<path class="st5" d="M420.6,167c-0.3,0.4-0.6,0.9-0.9,1.2c-0.6,0.8-1.5,1.9-2.6,3.3c-2.2,2.7-5.4,6.5-8.9,10.6s-6.6,7.7-9,10.5
		c-1.1,1.3-2,2.4-2.7,3.2c-0.3,0.4-0.7,0.8-1.1,1.1c0.3-0.4,0.6-0.8,0.9-1.2c0.6-0.8,1.5-1.9,2.6-3.3c2.2-2.7,5.4-6.5,8.9-10.6
		l9-10.5l2.7-3.2C419.9,167.7,420.2,167.3,420.6,167z"/>
</g>
<g id="freepik--character-1--inject-44">
	<path class="st12" d="M321,86.6c-0.1,0.3-11.2,8.7-11.2,8.7l-0.2,7.1l5.7,0.8l8.1-4.6l5.5-0.3c0,0,3.4,1.8,4,2
		c0.9,0.3,1.8-0.1,2.2-0.9l-5-3.6c0,0,5.5,3.1,6.1,2.7c0.6-0.7,0.5-1.8-0.2-2.4c-0.1-0.1-0.2-0.2-0.4-0.2c0,0,1.7,0.9,2.8,0.2
		s0.7-1.6,0.7-1.6l-7.3-6.6c-0.9-0.8-2.2-1.3-3.4-1.3L321,86.6z"/>
	<path class="st13" d="M321.9,89.7c0,0.3,0,0.6-0.1,0.9c-0.1,0.6-0.2,1.4-0.4,2.3l-0.1-0.2l4.2-0.3c0.9-0.1,1.8,0,2.7,0.4
		c0.5,0.2,0.9,0.6,1.1,1.1c0.3,0.5,0.3,1.1,0.1,1.6v0.1h-0.1c-1.3,0.8-3,0.6-4.5,0.7c-1.1,0-2.2,0.4-3.1,1.1
		c-0.8,0.7-1.6,1.4-2.3,2.2c-0.7,0.8-1.4,1.4-2.3,1.9c-0.8,0.5-1.6,0.7-2.5,0.7c-1.3,0-2.5-0.3-3.7-0.8c-0.4-0.1-0.8-0.3-1.2-0.6
		c0.4,0.1,0.9,0.2,1.3,0.4c1.2,0.4,2.4,0.6,3.6,0.6c0.8,0,1.6-0.3,2.3-0.7c0.8-0.5,1.5-1.2,2.2-1.9c0.7-0.8,1.5-1.6,2.3-2.3
		c1-0.8,2.1-1.2,3.4-1.2c1.5-0.1,3.1,0.1,4.2-0.6l-0.1,0.1c0.3-0.8-0.1-1.7-0.9-2.1c-0.8-0.3-1.6-0.4-2.5-0.4l-4.2,0.2h-0.2v-0.2
		c0.2-0.9,0.4-1.7,0.5-2.3C321.7,90.2,321.8,89.9,321.9,89.7z"/>
	<path class="st13" d="M336,95.9c-0.7-0.2-1.3-0.6-1.9-1.1c-1.1-0.8-2.3-2.3-3.9-3.4c-0.4-0.3-0.8-0.5-1.2-0.5c-0.4-0.1-0.9,0-1.4,0
		h-2.4c-0.7,0-1.4,0-2.2-0.1c0.7-0.2,1.4-0.2,2.2-0.2l2.3-0.1c0.5,0,0.9,0,1.4,0c0.5,0.1,1,0.3,1.5,0.6c1.3,1.1,2.6,2.3,3.8,3.6
		C335.4,95.4,336.1,95.8,336,95.9z"/>
	<path class="st2" d="M336.6,307.6l-0.3,17.5c0,0,17.7,6.1,18,9.4l-33.9,0.7l-0.7-27.3L336.6,307.6z"/>
	<g class="st9">
		<path class="st4" d="M325.8,323.8c-0.7,0.2-1.1,0.9-0.9,1.6c0.2,0.7,0.9,1.1,1.6,0.9c0.7-0.2,1.2-1,1-1.7
			C327.1,324,326.4,323.6,325.8,323.8"/>
	</g>
	<g class="st9">
		<path class="st4" d="M320.3,335.1v-2.8l32.5,0.4c0,0,1.5,0.6,1.4,1.7L320.3,335.1z"/>
	</g>
	<path class="st5" d="M336.8,324.9c0,0.2-0.8,0.3-1.6,0.8s-1.2,1.2-1.4,1.2s0.1-1,1.1-1.7S336.9,324.7,336.8,324.9z"/>
	<path class="st5" d="M340.4,326.3c0,0.2-0.7,0.5-1.2,1.2s-0.7,1.5-0.9,1.5s-0.3-0.9,0.4-1.8S340.4,326.1,340.4,326.3z"/>
	<path class="st5" d="M342.5,330.5c-0.1,0-0.4-0.8,0-1.7s1.2-1.3,1.2-1.2s-0.4,0.6-0.7,1.4S342.7,330.5,342.5,330.5z"/>
	<path class="st5" d="M336.5,320.9c-0.1,0.1-0.8-0.1-1.8,0s-1.7,0.4-1.8,0.2s0.6-0.8,1.7-0.8S336.5,320.8,336.5,320.9z"/>
	<g class="st10">
		<polygon points="336.5,311 336.5,314.2 319.8,314.3 319.7,311.5 		"/>
	</g>
	<path class="st5" d="M336.4,317.4c-0.6,0.1-1.1,0.1-1.7,0c-0.6-0.1-1.2-0.3-1.8-0.5c-0.3-0.1-0.7-0.3-1-0.5
		c-0.2-0.1-0.4-0.2-0.5-0.4c-0.2-0.2-0.3-0.6-0.1-0.9c0.2-0.2,0.4-0.4,0.7-0.4c0.2,0,0.4,0,0.6,0.1c0.4,0.1,0.7,0.2,1.1,0.3
		c0.6,0.2,1.1,0.6,1.6,1c0.8,0.7,1.1,1.3,1,1.4s-0.5-0.5-1.3-1c-0.5-0.3-1-0.6-1.5-0.8c-0.3-0.1-0.7-0.2-1-0.3
		c-0.4-0.1-0.7-0.1-0.8,0.1s0,0.1,0,0.2c0.1,0.1,0.2,0.2,0.4,0.3c0.3,0.2,0.6,0.4,0.9,0.5c0.5,0.3,1.1,0.4,1.7,0.6
		C335.3,317.1,335.9,317.2,336.4,317.4z"/>
	<path class="st5" d="M336.2,317.6c-0.3-0.5-0.5-1.1-0.5-1.6c0-0.6,0-1.3,0.2-1.9c0.1-0.3,0.2-0.7,0.4-1c0.2-0.5,0.6-0.8,1.1-0.9
		c0.3,0,0.6,0.2,0.7,0.5c0.1,0.2,0.2,0.4,0.2,0.6c0.1,0.4,0.1,0.8,0,1.1c-0.1,0.6-0.3,1.2-0.7,1.8c-0.6,0.9-1.3,1.1-1.3,1
		s0.5-0.4,1-1.3c0.3-0.5,0.5-1,0.5-1.6c0-0.3,0-0.7-0.1-1c-0.1-0.4-0.2-0.6-0.3-0.6s-0.5,0.3-0.6,0.6c-0.2,0.3-0.3,0.6-0.4,0.9
		c-0.2,0.6-0.3,1.1-0.3,1.7C336.1,317,336.3,317.6,336.2,317.6z"/>
	<path class="st5" d="M274.8,208.7c0.8,1.2,37.7,39.5,37.7,39.5s-4.6,17.6-2.9,32.9s6.6,39.7,6.6,39.7l26.7-2.1l-7.3-83l-29.2-38.5
		L274.8,208.7z"/>
	<path class="st2" d="M345.8,288.2l3.3,17.2c0,0,18.6,2.4,19.5,5.6l-33.1,7.5l-6.2-26.6L345.8,288.2z"/>
	<g class="st9">
		<path class="st4" d="M338.5,306.3c-0.6,0.4-0.9,1.1-0.6,1.8c0.3,0.6,1.1,0.9,1.7,0.6c0.7-0.4,0.9-1.2,0.6-1.9
			c-0.4-0.6-1.2-0.8-1.9-0.4"/>
	</g>
	<g class="st9">
		<path class="st4" d="M335.5,318.5l-0.5-2.7l31.9-6.2c0,0,1.6,0.3,1.7,1.4L335.5,318.5z"/>
	</g>
	<path class="st5" d="M349.6,305.1c0,0.2-0.8,0.4-1.4,1.1s-0.9,1.5-1.1,1.5s-0.1-1,0.7-1.9S349.6,305,349.6,305.1z"/>
	<path class="st5" d="M353.4,305.8c0.1,0.1-0.6,0.6-1,1.4s-0.4,1.6-0.5,1.6s-0.5-0.9,0-1.9S353.3,305.6,353.4,305.8z"/>
	<path class="st5" d="M356.3,309.5c-0.1,0.1-0.5-0.7-0.3-1.7s0.9-1.5,1-1.4s-0.3,0.7-0.4,1.5S356.4,309.4,356.3,309.5z"/>
	<path class="st5" d="M348.4,301.3c0,0.2-0.8,0.1-1.7,0.4s-1.5,0.7-1.7,0.6s0.4-0.9,1.5-1.2S348.4,301.2,348.4,301.3z"/>
	<g class="st10">
		<polygon points="346.4,291.6 347,294.7 330.7,298.3 330.1,295.5 		"/>
	</g>
	<path class="st5" d="M347.7,297.8c-0.5,0.3-1.1,0.4-1.7,0.4c-1,0-2-0.1-2.9-0.4c-0.2-0.1-0.4-0.2-0.6-0.3c-0.3-0.2-0.4-0.5-0.3-0.8
		c0.1-0.3,0.3-0.5,0.6-0.5c0.2-0.1,0.4-0.1,0.6-0.1c0.4,0,0.7,0,1.1,0.1c0.6,0.1,1.2,0.3,1.8,0.6c0.9,0.5,1.3,1.1,1.3,1.1
		s-0.5-0.4-1.5-0.8c-0.5-0.2-1.1-0.4-1.7-0.5c-0.3-0.1-0.7-0.1-1-0.1c-0.4,0-0.7,0-0.7,0.2s0,0.1,0.1,0.2c0.1,0.1,0.3,0.2,0.4,0.2
		c0.3,0.1,0.7,0.2,1,0.3c0.6,0.1,1.2,0.2,1.7,0.2C346.6,297.8,347.1,297.8,347.7,297.8z"/>
	<path class="st5" d="M347.5,298.1c-0.1,0-0.5-0.5-0.8-1.5c-0.2-0.6-0.2-1.2-0.2-1.9c0-0.4,0.1-0.7,0.2-1.1c0.1-0.5,0.4-0.9,0.9-1.1
		c0.3-0.1,0.6,0.1,0.8,0.3c0.1,0.2,0.2,0.4,0.3,0.6c0.1,0.4,0.2,0.7,0.3,1.1c0,0.6-0.1,1.3-0.3,1.9c-0.5,1-1.1,1.4-1.1,1.3
		c0.3-0.5,0.5-1,0.7-1.5c0.2-0.5,0.2-1.1,0.2-1.7c0-0.3-0.1-0.6-0.2-1c-0.1-0.3-0.3-0.6-0.5-0.5s-0.4,0.4-0.5,0.7
		c-0.3,0.9-0.3,1.8-0.1,2.7C347.3,297.5,347.6,298.1,347.5,298.1z"/>
	<path class="st5" d="M208.9,182.5c0,0-2.5,15.8,7.1,26.1s19.9,14.9,38.1,14.1s57.5,0.1,57.5,0.1s1.7,21,6.2,38.2s13.6,43,13.6,43
		l17.8-1.7c0,0-4.8-93.6-6-101.9s-15-12.5-22.5-14.9s-50.2-11.1-50.2-11.1l-38.8-5.4L208.9,182.5z"/>
	<path class="st8" d="M349.2,302.3h-0.3l-0.9,0.1l-3.6,0.3l-13.6,0.9h-0.1v-0.1c-2.4-7.7-5.5-17.6-9.1-29.1
		c-1.8-5.8-3.7-11.9-5.7-18.3c-1-3.2-2.1-6.5-2.8-9.9c-0.8-3.5-1.3-7-1.5-10.6c-0.3-4.2-0.1-8.4,0.7-12.5l0.2,0.3
		c-10.9-0.2-21.1-0.3-30.3-0.4c-4.6,0-9,0-13,0.1s-7.8,0.2-11.3,0.2c-6.9,0-12.4-0.4-16.2-0.7c-1.9-0.2-3.4-0.3-4.3-0.4l-1.1-0.1
		l-0.4-0.1c0.1,0,0.3,0,0.4,0l1.1,0.1l4.4,0.4c3.8,0.3,9.3,0.6,16.2,0.5c3.4,0,7.2-0.2,11.3-0.3s8.4-0.1,13-0.1
		c9.2,0,19.5,0.1,30.3,0.3h0.3l-0.1,0.3c-0.7,4.1-0.9,8.2-0.6,12.4c0.2,3.5,0.7,7.1,1.5,10.5c0.7,3.4,1.8,6.7,2.8,9.9
		c2,6.4,3.9,12.6,5.6,18.3c3.5,11.5,6.6,21.5,9,29.1l-0.1-0.1l13.6-0.8l3.6-0.2h0.9C349.1,302.2,349.2,302.2,349.2,302.3z"/>
	<path class="st8" d="M321,212.1c0.1,0.1-2.1,2.2-4.4,5.2s-3.7,5.7-3.8,5.7c0.2-0.7,0.5-1.3,0.8-1.9c0.8-1.4,1.6-2.8,2.6-4.1
		c1-1.3,2-2.5,3.2-3.7C319.9,212.9,320.4,212.5,321,212.1z"/>
	<path class="st8" d="M325.8,213.8c-2.4,1-4.8,2.2-7,3.6c-2.1,1.6-4.1,3.4-5.8,5.3c0.4-0.7,0.8-1.3,1.4-1.9c2.5-2.9,5.7-5.1,9.3-6.4
		C324.3,214.1,325.1,213.9,325.8,213.8z"/>
	<path class="st8" d="M246.4,87.6c1.3,0.6,28.6,17.4,29.9,17.4s33.6-11.8,33.6-11.8l6.6,10.2c0,0-28.3,21.8-37.6,22.1
		s-24-7.1-24-7.1L246.4,87.6z"/>
	<path class="st8" d="M189.6,96.8c0,0-34,34.6-33.6,43.3s4.6,13.6,7.3,14.8c3.8,1.6,46.3-3.6,46.3-3.6l2.5-16.6
		c-7-1.4-15.9-2.4-25.5-3.4c4.3-4.5,9.1-7.9,15-8.9l10.2-11.1C211.9,111.3,199.2,94.6,189.6,96.8z"/>
	<path class="st8" d="M187.8,107.1c0,0-1.6-7.5,2-10.4c6-5,11.1-7.3,15.5-9.4c5-2.5,10.3-5.4,10.3-5.4l30.9,5.7
		c0,0,16.5,26.3,16.1,32.8c-0.2,3.9-1.8,7.6-4.5,10.5c-1.2,7.1-0.4,14.4,2.2,21.1c3.7,9.2,10.2,22.4,10.2,22.4s-35.4-5.7-52.1,2.5
		c-9,4.4-9.8,11.4-9.8,11.4l-1.3-38.5l0,0l-6.9-23.6L187.8,107.1z"/>
	<path class="st5" d="M211.2,134.5c0,0-0.2-0.1-0.5-0.1s-0.8-0.1-1.4-0.2c-1.2-0.2-2.9-0.4-5.1-0.6c-4.3-0.5-10.2-1.1-16.8-1.7
		l-1.1-0.1l-0.6-0.1l0.5-0.4c2.5-2,4.8-3.8,7-5.5c2-1.4,4.3-2.4,6.6-2.9c1.6-0.3,3.2-0.4,4.9-0.3c0.4,0,0.9,0.1,1.3,0.2
		c0.2,0,0.3,0.1,0.4,0.1c-2.2-0.2-4.4-0.1-6.6,0.4c-2.3,0.5-4.5,1.6-6.4,3l-7,5.6l-0.1-0.4l1.1,0.1c6.6,0.6,12.5,1.3,16.8,1.9
		S211.2,134.2,211.2,134.5z"/>
	<path class="st5" d="M174.7,132.1c0.4-0.5,0.8-0.9,1.4-1.2c1.3-0.8,2.7-1.3,4.2-1.4c1.5-0.1,3,0.2,4.4,0.9c0.6,0.2,1.1,0.6,1.5,1.1
		c-0.1,0.1-0.6-0.3-1.6-0.8c-1.3-0.5-2.8-0.8-4.2-0.7c-1.4,0.1-2.8,0.5-4.1,1.2C175.2,131.7,174.7,132.1,174.7,132.1z"/>
	<path class="st5" d="M207,111c-0.1,0-0.4-1.3-1.1-3.2c-0.9-2.6-2.3-4.9-4.1-7c-1-1.1-2.2-2-3.5-2.8l-0.9-0.4
		c-0.3-0.1-0.6-0.2-0.9-0.3c-0.5-0.2-1.1-0.3-1.6-0.4c-0.8-0.1-1.6-0.2-2.5-0.2c-0.3,0-0.6,0-0.9,0c0.3-0.1,0.6-0.1,0.9-0.1
		c1.4-0.2,2.9,0,4.3,0.4c0.3,0.1,0.6,0.2,0.9,0.3l1,0.4c1.4,0.7,2.6,1.7,3.6,2.8c1.8,2.1,3.2,4.6,4.1,7.2c0.3,0.8,0.5,1.6,0.7,2.4
		C207,110.4,207,110.7,207,111z"/>
	<path class="st5" d="M257.1,131.9c0,0,0.4-0.5,1.1-1.3c1-1.2,1.7-2.6,2.3-4c0.8-2.1,1.3-4.4,1.2-6.7c-0.1-2.8-0.9-5.6-2.5-7.9
		c-1.6-2.4-3.3-4.6-5.2-6.7c-1.5-1.8-2.9-3.7-3.9-5.8c-0.7-1.4-1.2-2.9-1.4-4.5c-0.1-0.4-0.1-0.9-0.1-1.3c0-0.1,0-0.3,0-0.4
		c0,0,0,0.6,0.2,1.7c0.3,1.5,0.8,3,1.6,4.4c1.1,2,2.5,3.9,4,5.6c1.9,2.1,3.7,4.4,5.2,6.8c1.6,2.5,2.4,5.3,2.5,8.2
		c0.1,2.4-0.4,4.7-1.3,6.9c-0.6,1.5-1.4,2.8-2.5,4c-0.3,0.3-0.6,0.6-0.9,0.9C257.4,131.7,257.2,131.8,257.1,131.9z"/>
	<g class="st10">
		<path d="M203.4,133.1c-0.7-2.3,0.6-4.8,2.8-5.6c1.2-0.3,2.5-0.4,3.7-0.5c0.8-0.1,1.6-0.5,1.8-1.3c0.2-1-0.8-1.7-1.7-2.1
			c-3.7-1.6-7.9-1.7-11.7-0.3c2.1,2.8,3.4,6.2,3.6,9.7"/>
	</g>
	<g class="st10">
		<path d="M250.1,98.9c-1.6-3.2,4.2,5.8,6.9,8.1c2.8,2.2,5.4,4.7,7.8,7.4c2.2,2.8,3.9,5.9,3.6,9.4l-6.4-2.3c0,0,0.8-5.2-2-9
			S250.8,100.1,250.1,98.9z"/>
	</g>
	<g class="st10">
		<path d="M186.2,131.1c-1.8-1.9-4.5-2.7-7.1-3c-1.6-0.2-3.2-0.1-4.7,0.3c-1.5,0.5-2.8,1.6-3.3,3.2c-0.2,0.5-0.1,1,0.1,1.4
			c0.4,0.4,0.9,0.5,1.5,0.3c0.5-0.2,1-0.5,1.4-0.8c3.5-2.5,8-3,12-1.3"/>
	</g>
	<path class="st5" d="M196.7,106.6c0,1.2-0.9,2.1-2.1,2.1c-1.2,0-2.1-0.9-2.1-2.1c0-1.2,0.9-2.1,2.1-2.1c0,0,0,0,0,0
		C195.8,104.5,196.7,105.4,196.7,106.6C196.7,106.6,196.7,106.6,196.7,106.6z"/>
	<path class="st5" d="M208.1,92.6c0,1.2-0.9,2.1-2.1,2.1s-2.1-0.9-2.1-2.1c0-1.2,0.9-2.1,2.1-2.1S208.1,91.5,208.1,92.6L208.1,92.6z
		"/>
	<path class="st5" d="M230.1,93.5c0,1.2-0.9,2.1-2.1,2.1s-2.1-0.9-2.1-2.1c0-1.2,0.9-2.1,2.1-2.1c0,0,0,0,0,0
		C229.2,91.4,230.1,92.3,230.1,93.5L230.1,93.5z"/>
	<path class="st5" d="M247.2,92.2c0,1.2-0.9,2.1-2.1,2.1s-2.1-0.9-2.1-2.1c0-1.2,0.9-2.1,2.1-2.1S247.2,91,247.2,92.2L247.2,92.2z"
		/>
	<path class="st5" d="M275.4,117.2c0,1.2-0.9,2.1-2.1,2.1c-1.2,0-2.1-0.9-2.1-2.1c0-1.2,0.9-2.1,2.1-2.1c0,0,0,0,0,0
		C274.4,115,275.4,116,275.4,117.2C275.4,117.2,275.4,117.2,275.4,117.2z"/>
	<path class="st5" d="M258.2,115c0,1.2-0.9,2.1-2.1,2.1c-1.2,0-2.1-0.9-2.1-2.1s0.9-2.1,2.1-2.1c0,0,0,0,0,0
		C257.2,112.9,258.2,113.9,258.2,115C258.2,115,258.2,115,258.2,115z"/>
	<path class="st5" d="M261.8,101c0,1.2-0.9,2.1-2.1,2.1c-1.2,0-2.1-0.9-2.1-2.1c0-1.2,0.9-2.1,2.1-2.1c0,0,0,0,0,0
		C260.9,98.9,261.8,99.9,261.8,101C261.8,101,261.8,101,261.8,101z"/>
	<circle class="st5" cx="285.5" cy="106.8" r="2.1"/>
	<path class="st5" d="M302.2,108.7c0,1.2-0.9,2.1-2.1,2.1s-2.1-0.9-2.1-2.1c0-1.2,0.9-2.1,2.1-2.1c0,0,0,0,0,0
		C301.2,106.6,302.2,107.5,302.2,108.7z"/>
	<path class="st5" d="M249.4,131.2c0,1.2-0.9,2.1-2.1,2.1c-1.2,0-2.1-0.9-2.1-2.1s0.9-2.1,2.1-2.1c0,0,0,0,0,0
		C248.4,129.1,249.4,130,249.4,131.2C249.4,131.2,249.4,131.2,249.4,131.2z"/>
	<path class="st5" d="M257,143.2c0,1.2-0.9,2.1-2.1,2.1c-1.2,0-2.1-0.9-2.1-2.1s0.9-2.1,2.1-2.1c0,0,0,0,0,0
		C256,141.1,257,142,257,143.2C257,143.2,257,143.2,257,143.2z"/>
	<path class="st5" d="M241.3,151.2c0,1.2-0.9,2.1-2.1,2.1c-1.2,0-2.1-0.9-2.1-2.1c0-1.2,0.9-2.1,2.1-2.1c0,0,0,0,0,0
		C240.3,149.1,241.3,150.1,241.3,151.2C241.3,151.2,241.3,151.2,241.3,151.2z"/>
	<path class="st5" d="M231.1,164.4c0,1.2-0.9,2.1-2.1,2.1s-2.1-0.9-2.1-2.1c0-1.2,0.9-2.1,2.1-2.1c0,0,0,0,0,0
		C230.2,162.3,231.1,163.3,231.1,164.4L231.1,164.4z"/>
	<path class="st5" d="M256.1,162.2c0,1.2-0.9,2.1-2.1,2.1c-1.2,0-2.1-0.9-2.1-2.1c0-1.2,0.9-2.1,2.1-2.1c0,0,0,0,0.1,0
		C255.1,160.1,256.1,161.1,256.1,162.2z"/>
	<path class="st5" d="M215.2,174.1c0,1.2-0.9,2.1-2.1,2.1c-1.2,0-2.1-0.9-2.1-2.1s0.9-2.1,2.1-2.1c0,0,0,0,0,0
		C214.3,172,215.2,172.9,215.2,174.1C215.2,174.1,215.2,174.1,215.2,174.1z"/>
	<path class="st5" d="M224,141.1c0,1.2-0.9,2.1-2.1,2.1c-1.2,0-2.1-0.9-2.1-2.1c0-1.2,0.9-2.1,2.1-2.1c0,0,0,0,0,0
		C223.1,139,224,139.9,224,141.1C224,141.1,224,141.1,224,141.1z"/>
	<path class="st5" d="M216.9,156.4c0,1.2-0.9,2.1-2.1,2.1s-2.1-0.9-2.1-2.1c0-1.2,0.9-2.1,2.1-2.1S216.9,155.3,216.9,156.4
		L216.9,156.4z"/>
	<path class="st5" d="M242.6,109.5c0,1.2-0.9,2.1-2.1,2.1c-1.2,0-2.1-0.9-2.1-2.1c0-1.2,0.9-2.1,2.1-2.1c0,0,0,0,0,0
		C241.7,107.4,242.6,108.3,242.6,109.5C242.6,109.5,242.6,109.5,242.6,109.5z"/>
	<path class="st5" d="M229.5,126.3c0,1.2-0.9,2.1-2.1,2.1s-2.1-0.9-2.1-2.1c0-1.2,0.9-2.1,2.1-2.1
		C228.5,124.2,229.5,125.1,229.5,126.3C229.5,126.3,229.5,126.3,229.5,126.3z"/>
	<path class="st5" d="M216.9,112.9c0,1.2-0.9,2.1-2.1,2.1s-2.1-0.9-2.1-2.1c0-1.2,0.9-2.1,2.1-2.1S216.9,111.8,216.9,112.9
		L216.9,112.9z"/>
	<path class="st5" d="M165,145.5c0,1.2-0.9,2.1-2.1,2.1c-1.2,0-2.1-0.9-2.1-2.1s0.9-2.1,2.1-2.1c0,0,0,0,0,0
		C164,143.4,165,144.4,165,145.5z"/>
	<path class="st5" d="M174.8,118.9c0,1.2-0.9,2.1-2.1,2.1c-1.2,0-2.1-0.9-2.1-2.1c0-1.2,0.9-2.1,2.1-2.1c0,0,0,0,0,0
		C173.8,116.8,174.8,117.7,174.8,118.9C174.8,118.9,174.8,118.9,174.8,118.9z"/>
	<path class="st5" d="M193.5,148.5c0,1.2-0.9,2.1-2.1,2.1c-1.2,0-2.1-0.9-2.1-2.1s0.9-2.1,2.1-2.1c0,0,0,0,0,0
		C192.5,146.4,193.5,147.4,193.5,148.5z"/>
	<path class="st5" d="M206.3,138.7c0,1.2-0.9,2.1-2.1,2.1s-2.1-0.9-2.1-2.1c0-1.2,0.9-2.1,2.1-2.1c0,0,0,0,0,0
		C205.4,136.6,206.3,137.5,206.3,138.7z"/>
	<path class="st5" d="M180.7,136.4c0,1.2-0.9,2.1-2.1,2.1c-1.2,0-2.1-0.9-2.1-2.1c0-1.2,0.9-2.1,2.1-2.1c0,0,0,0,0,0
		C179.8,134.3,180.7,135.2,180.7,136.4C180.7,136.4,180.7,136.4,180.7,136.4z"/>
	<path class="st5" d="M191.6,122.5c0,1.2-0.9,2.1-2.1,2.1c-1.2,0-2.1-0.9-2.1-2.1c0-1.2,0.9-2.1,2.1-2.1c0,0,0,0,0,0
		C190.7,120.4,191.6,121.3,191.6,122.5C191.7,122.5,191.7,122.5,191.6,122.5z"/>
	<path class="st2" d="M182.8,244c-4.3,0-8.7-0.5-12.9-1.4c-8.8-1.9-15.7-4.8-21-8.7c-6.6,2.3-13.5,3.5-20.4,3.7
		c-22.7,0.6-43.2-6.5-68.4-26.9c-1.3-2.7-2.5-5.6-3.7-8.6c24.2,19.6,50.5,31,71.9,30.5c5.5-0.1,10.9-1,16.2-2.6
		c-5.9-6.1-8.8-14.1-8.8-23.8c0-10.6,4.6-15.4,8.3-17.6c5.4-3.1,12.7-2.6,19.1,1.1c7.1,4.1,11.3,11.1,11.3,18.7
		c-0.1,6.3-3.1,12.2-8.1,16c-3.7,2.8-7.7,5.2-11.9,7.1c12.1,6.6,26.1,8.8,39.6,6.2c21.3-4.2,39.1-11.8,52.9-22.5
		c21.9-16.8,34.4-43.2,33.5-70.8v-0.1c-1.2-24.6-15.6-48.7-36.7-61.4c-18.3-10.9-41.7-13.9-65.9-8.4c-15.1,3.4-35.5,11.5-47.6,30.8
		c-13,20.7-9.5,46.4,1.2,58.4c7.6,8.5,22.3,5.4,34.1,3l3.9-0.8c12.7-2.5,64.1-26.6,64.3-26.7l1.1,4.1c-0.8,0.3-51.4,24.9-64.4,27.5
		c-1.2,0.2-2.5,0.5-3.8,0.8c-13,2.7-29.3,6.1-38.8-4.5c-6.9-7.7-10.8-18.9-10.8-31.4c-0.1-11.6,3.1-23,9.1-33
		c13-20.7,34.8-29.3,50.7-33c25.5-5.8,50.2-2.6,69.5,9c22.4,13.5,37.7,39.2,39.1,65.4c0.1,1.3,1.5,20.5-8.8,42.1
		c-6.1,13-15.3,24.3-26.7,33c-14.4,11.2-32.9,19-55,23.4C190.9,243.6,186.9,244,182.8,244z M152.1,191.7c-1.9,0-3.9,0.4-5.6,1.4
		c-3.8,2.2-5.8,6.8-5.8,13.3c0,9.3,2.9,16.5,9,21.9c4.9-1.9,9.4-4.5,13.6-7.7c3.8-2.9,6-7.3,6.1-12c0-5.8-3.3-11.1-8.8-14.4
		C158,192.6,155.1,191.8,152.1,191.7z"/>
	<path class="st5" d="M152.8,236.5c-0.7-0.2-1.3-0.5-1.9-0.9c-1.4-0.9-2.8-1.9-4.1-3c-1.3-1.1-2.5-2.2-3.6-3.5
		c-0.5-0.5-0.9-1.1-1.2-1.7c0.1,0,0.5,0.6,1.4,1.5s2.2,2.1,3.7,3.4s2.9,2.3,3.9,3.1C151.7,235.7,152.3,236.1,152.8,236.5z"/>
	<path class="st5" d="M158.1,233.6c-0.8,0-1.5-0.2-2.2-0.6c-1.7-0.7-3.4-1.7-4.8-2.9c-1.5-1.2-2.8-2.5-3.9-4c-0.5-0.6-0.9-1.3-1.2-2
		c0.1,0,0.6,0.7,1.5,1.8c1.2,1.4,2.6,2.7,4,3.8c1.4,1.2,3,2.1,4.6,2.9C157.2,233.3,158.1,233.5,158.1,233.6z"/>
	<path class="st4" d="M138.1,216.4c-0.2-0.2-0.3-0.5-0.3-0.8c-0.2-0.8-0.4-1.5-0.6-2.3c-1-5.2-0.6-10.5,1.1-15.4
		c0.3-0.7,0.6-1.5,0.9-2.2c0.1-0.3,0.2-0.5,0.4-0.8c0.1,0-0.4,1.2-1,3.1c-0.7,2.5-1.2,5-1.4,7.6c-0.2,2.6-0.1,5.1,0.3,7.7
		C137.9,215.2,138.2,216.4,138.1,216.4z"/>
	<path class="st4" d="M125.7,234.3c-0.8,0.3-1.6,0.4-2.4,0.4c-3.9,0.3-7.9-0.2-11.6-1.6c-0.8-0.3-1.5-0.6-2.2-1.1
		c0.8,0.2,1.6,0.4,2.3,0.7c1.8,0.6,3.7,1,5.7,1.3c1.9,0.3,3.9,0.4,5.8,0.3C124,234.3,124.8,234.3,125.7,234.3z"/>
	<path class="st4" d="M263.5,201.1c-0.4,0.8-0.9,1.5-1.5,2.2c-2.6,3.4-5.5,6.4-8.8,9c-0.7,0.6-1.4,1.1-2.1,1.5
		c0.6-0.6,1.2-1.2,1.9-1.7c1.2-1.1,2.8-2.6,4.5-4.3c1.7-1.8,3.2-3.4,4.2-4.7C262.3,202.4,262.9,201.7,263.5,201.1z"/>
	<path class="st4" d="M120.9,150.2c-0.2-0.4-0.4-0.9-0.5-1.3c-0.4-1.2-0.7-2.5-1-3.7c-0.4-1.9-0.8-3.8-1-5.7
		c-0.5-4.7-0.4-9.4,0.4-14.1c0.3-1.9,0.7-3.8,1.3-5.6c0.4-1.2,0.8-2.5,1.2-3.7c0.1-0.5,0.3-0.9,0.6-1.3c-0.1,0.5-0.2,0.9-0.4,1.4
		c-0.3,0.9-0.7,2.1-1.1,3.7c-0.5,1.8-0.9,3.7-1.2,5.6c-0.3,2.3-0.6,4.7-0.6,7c-0.1,2.3,0,4.7,0.3,7c0.2,1.9,0.5,3.8,0.9,5.6
		c0.3,1.6,0.6,2.9,0.9,3.7C120.7,149.3,120.8,149.8,120.9,150.2z"/>
	<path class="st4" d="M126.9,105.3c-0.2,1-0.7,1.9-1.2,2.7c-0.4,0.9-1,1.7-1.7,2.4c0.3-1,0.7-1.9,1.2-2.7
		C125.7,106.8,126.3,106,126.9,105.3z"/>
	<path class="st5" d="M248,61.2c-1.2,1.9-0.2,4.4,1.2,6.2s3,3.5,3.3,5.8c0.4,3.1-2.2,5.7-5,7c-0.9,0.3-1.7,0.8-2.4,1.5
		c-0.8,1.1-0.5,2.6-0.5,3.9c0,2.3-1.3,4.4-3.3,5.6c-2.1,1.1-4.6,0.7-6.3-1c-0.8-1-1.4-2.3-1.6-3.6c-1.1-5,0.2-10.3,3.6-14.2
		c1.7-1.9,3.8-3.3,5.7-5s3.5-3.9,3.6-6.4"/>
	<path class="st5" d="M247.7,38.4c-1.4-3.6-5-5.8-8.7-7.1c-5.2-2-11-2.1-16.2-0.3c-7.6,2.8-12.7,9.9-16.7,16.9
		c-1.7,3.1-3.6,6.5-7,7.6c-1.8,0.5-3.7,0.3-5.6,0.5c-2.9,0.3-5.6,1.8-7.5,4c-2.2,2.7-3.4,6.6-6.6,8.1c-2.1,0.9-4.5,0.5-6.7,0.6
		c-4.7,0.1-9.7,3-10.8,7.6c-0.7,3,0.4,6.4-1,9.1c-0.5,1-1.3,1.8-1.8,2.9c-1.2,2.6-0.1,5.7,2.5,6.9c1.6,0.8,3.6,0.6,5.1-0.4
		c0.6-0.5,1.3-1,2.1-1.4c1.6-0.7,3.5,0.2,4.9,1.3s2.8,2.4,4.6,2.6c3.6,0.4,6.4-4,10.1-3.7c2,0.1,3.6,1.7,5.4,2.7
		c3.1,1.8,4.6,0.2,7.2-2.3s4,7.9,10,5.2c5.6-2.5,0.1-12.1,2.1-11.9s7.4-0.1,8.5-1.8"/>
	<path class="st5" d="M248.4,49.1c1.5-4.1,0.9-8.7-1.6-12.3c-2-2.6-4.6-4.6-7.6-5.8c-4-1.8-8.5-2.3-12.8-1.2
		c-4.2,1.2-7.9,4.6-8.8,8.8c-0.4,1.9-0.3,4-1.1,5.8c-0.5,0.7-0.8,1.5-0.8,2.4c0.2,0.8,0.8,1.4,1.6,1.5c0.8,0.1,1.6,0.1,2.3-0.2
		c2.5-0.9,4.9-2.2,7-3.9"/>
	<path class="st12" d="M234.4,86.8c0.5-3.7,0.6-5.2,0.6-5.2s7.9-0.4,10.7-10.4c1.4-5,2.1-13.3,2.4-20.1c0.3-6.1-2.9-14.1-9-14.1
		l-19.5,2.6c-1.9,0-3.4,1.4-3.6,3.3L213,87.4c0,0,8.8,10.4,16.4,9S234.4,86.8,234.4,86.8z"/>
	<path class="st5" d="M244.9,58c-0.1,0.7-0.7,1.2-1.4,1.2c-0.7,0-1.2-0.6-1.2-1.3c0,0,0,0,0,0c0.1-0.7,0.7-1.2,1.4-1.2
		C244.4,56.7,245,57.3,244.9,58C244.9,58,244.9,58,244.9,58z"/>
	<path class="st5" d="M245.9,55.3c-0.2,0.1-1.1-0.7-2.5-0.9s-2.5,0.4-2.6,0.2s0.1-0.4,0.6-0.6c0.7-0.3,1.4-0.5,2.1-0.4
		c0.7,0.1,1.4,0.4,1.9,0.9C245.9,54.9,246,55.2,245.9,55.3z"/>
	<path class="st5" d="M232.1,56.7c-0.1,0.7-0.7,1.2-1.4,1.2c-0.7,0-1.2-0.6-1.2-1.3c0,0,0,0,0,0c0.1-0.7,0.7-1.2,1.4-1.2
		C231.6,55.4,232.2,56,232.1,56.7C232.1,56.7,232.1,56.7,232.1,56.7z"/>
	<path class="st5" d="M232.1,54c-0.2,0.2-1.1-0.7-2.5-0.8s-2.5,0.4-2.6,0.2s0.1-0.4,0.6-0.6c0.7-0.3,1.4-0.5,2.1-0.4
		c0.7,0.1,1.4,0.4,2,0.9C232.1,53.6,232.2,53.9,232.1,54z"/>
	<path class="st5" d="M236,64.9c0.8-0.2,1.5-0.2,2.3-0.2c0.4,0,0.7,0,0.8-0.3c0.1-0.4,0-0.7-0.1-1.1c-0.2-0.9-0.5-1.9-0.8-2.9
		c-0.7-2.4-1.2-4.9-1.6-7.4c0.2,0,1.1,3.2,2.2,7.2c0.2,1,0.5,1.9,0.7,2.9c0.2,0.5,0.2,1,0,1.4c-0.1,0.2-0.4,0.4-0.6,0.5
		c-0.2,0-0.4,0-0.6,0C237.5,65.2,236.8,65.1,236,64.9z"/>
	<path class="st13" d="M235.1,81.6c-4.8-0.5-9.4-2.3-13.2-5.2c0,0,2.6,7.4,12.9,7.6L235.1,81.6z"/>
	<path class="st13" d="M235,68.3c-0.5-0.7-1.3-1.2-2.1-1.2c-0.6,0-1.2,0.2-1.7,0.7c-0.4,0.4-0.6,1.1-0.3,1.6
		c0.4,0.6,1.1,0.8,1.8,0.7c0.7-0.2,1.3-0.5,1.9-0.9c0.2-0.1,0.3-0.2,0.4-0.4C235.1,68.7,235.1,68.5,235,68.3"/>
	<path class="st5" d="M232.8,48.9c-0.2,0.4-1.6,0-3.2,0s-3,0.3-3.2-0.1c-0.1-0.2,0.2-0.5,0.8-0.8c1.6-0.8,3.4-0.8,4.9,0
		C232.6,48.4,232.8,48.7,232.8,48.9z"/>
	<path class="st5" d="M246.2,49.1c-0.3,0.3-1.2-0.1-2.4-0.3s-2.2,0-2.4-0.4c-0.1-0.2,0.1-0.5,0.6-0.7c1.3-0.6,2.8-0.4,3.8,0.6
		C246.2,48.6,246.3,49,246.2,49.1z"/>
	<path class="st12" d="M217,60.3c0.1-0.8-0.6-2.6-1.3-2.8c-2-0.5-5.6-0.8-6.2,4.3c-0.8,6.9,6.3,6.3,6.3,6.1S216.7,62.9,217,60.3z"/>
	<path class="st13" d="M214,65c0,0-0.1,0.1-0.4,0.1c-0.3,0.1-0.6,0.1-0.9-0.1c-0.8-0.7-1.2-1.8-1.1-2.8c0.1-0.6,0.2-1.2,0.6-1.7
		c0.2-0.4,0.6-0.7,1-0.8c0.3,0,0.6,0.1,0.7,0.4c0.1,0.2,0,0.3,0,0.4s0.2-0.1,0.1-0.4c0-0.2-0.1-0.3-0.2-0.5
		c-0.2-0.2-0.4-0.3-0.6-0.3c-0.6,0-1.1,0.4-1.4,0.9c-0.4,0.6-0.6,1.2-0.6,1.9c-0.1,1.4,0.4,2.8,1.4,3.2c0.4,0.2,0.8,0.1,1.1-0.1
		C214,65.2,214,65,214,65z"/>
	<path class="st5" d="M240.2,36c-1,3.3-3.7,5.9-7.1,6.6c-1.8,0.4-3.9,0.3-5.1,1.7s-0.8,3.7-1.9,5.2c-1.6,2.1-5.3,1.6-6.5,3.9
		c-0.5,1-0.4,2.2-1,3.2c-0.9,1.3-2.6,1.8-4,1.1c-1.4-0.7-2.4-1.9-2.7-3.4c-0.3-1.5-0.5-3-0.3-4.5c0-3,0.5-5.9,1.6-8.7
		c2.4-5.7,11.7-13,17.8-12"/>
	<path class="st5" d="M247.2,63.3c1.6-1.9,3.1-4,4.7-5.8s3.1-3.7,3.2-6c0-2-0.6-3.9-1.7-5.5c-2-3.2-4.2-6.2-6.6-9
		c-0.5-0.7-1.1-1.3-1.9-1.8c-0.6-0.4-1.3-0.6-2.1-0.7c-0.6-0.1-1.2,0.1-1.7,0.4c-0.5,0.4-0.7,1-0.5,1.6c0.3,0.5,0.8,0.8,1.3,1
		c2.9,1.5,4.7,4.5,5.6,7.6c0.8,3.1,0.6,6.1,0.5,9.4c-0.1,2.5-0.4,5.2-0.7,7.6"/>
	<path class="st5" d="M231,29.4c-7.4-0.9-14.7,2.2-19.2,8.1c-2.4,3.2-4.2,7.5-8,8.8c-3.1,1.1-6.6-0.1-9.9,0.4
		c-3,0.5-5.5,2.5-6.7,5.3c-0.9,2.2-1,4.8-2.7,6.5c-2.1,2.3-6,2-8.2,4.2c-1.8,1.8-1.9,4.8-1.1,7.3c0.2,1.1,0.8,2,1.7,2.6
		c0.9,0.4,1.8,0.4,2.7,0.2c3.1-0.7,6.1-1.9,8.9-3.5c6.4-3.4,12.5-7.3,18.6-11.1c2.9-1.7,5.6-3.7,8-6.1c3-3.3,4.8-7.4,6.9-11.3
		s4.8-7.8,8.8-9.6"/>
	<path class="st8" d="M162.3,95.3c-0.1,0-0.2,0-0.3-0.1c-0.3-0.1-0.5-0.2-0.8-0.4c-0.9-0.6-1.6-1.6-1.9-2.6
		c-0.5-1.7-0.3-3.6,0.6-5.1c1.3-1.9,3.2-3.4,5.4-4.1c2.7-0.8,5.4-1.4,8.1-1.8c1.5-0.3,3-0.7,4.4-1.3c3.1-1.2,5.3-4.2,5.5-7.6
		c0.2-1.8,0.5-3.6,0.9-5.3c1.1-3.7,3.8-6.8,7.4-8.4c1.8-0.8,3.7-1.2,5.7-1.2c1.9,0,3.8,0.3,5.6,0.5c1.8,0.2,3.5,0,5.2-0.6
		c0.8-0.3,1.5-0.7,2.1-1.3c0.6-0.6,1.1-1.3,1.5-2c0.8-1.4,1.3-3,2.2-4.4c0.9-1.3,2-2.5,3.3-3.3c2.4-1.4,5-2.4,7.8-3
		c2.2-0.5,4.4-1.2,6.5-2c1.6-0.6,3.1-1.5,4.4-2.6c0.8-0.7,1.5-1.5,2.1-2.5c0.4-0.6,0.5-1,0.5-1c-0.1,0.3-0.3,0.7-0.4,1
		c-0.5,1-1.2,1.8-2,2.6c-1.3,1.1-2.8,2-4.4,2.7c-2.1,0.8-4.3,1.5-6.6,2c-2.7,0.6-5.2,1.6-7.6,3c-1.3,0.8-2.4,1.9-3.2,3.2
		c-0.8,1.3-1.3,2.9-2.1,4.4c-0.4,0.8-0.9,1.5-1.6,2.1c-0.7,0.6-1.4,1.1-2.3,1.4c-1.7,0.6-3.6,0.8-5.4,0.6c-1.8-0.1-3.7-0.4-5.5-0.4
		c-1.9,0-3.7,0.4-5.4,1.2c-3.4,1.6-6,4.5-7.1,8.1c-0.4,1.7-0.7,3.5-0.9,5.3c-0.2,1.8-0.8,3.4-1.8,4.9c-1.1,1.3-2.4,2.3-3.9,3
		c-1.4,0.6-2.9,1.1-4.5,1.4c-2.7,0.4-5.4,0.9-8.1,1.7c-2.2,0.7-4,2.1-5.3,4c-0.9,1.5-1.2,3.2-0.7,4.9c0.3,1,0.9,2,1.8,2.6
		C161.7,94.9,162,95.1,162.3,95.3z"/>
	<path class="st8" d="M162.9,74c0.2-0.3,0.4-0.5,0.7-0.7c0.8-0.5,1.7-0.8,2.7-0.8c1.5,0,3,0.2,4.4,0.7c0.9,0.3,1.8,0.5,2.7,0.6
		c1,0.2,2,0.1,3-0.3c1-0.4,1.9-1.1,2.6-2.1c0.7-1,1.3-2.1,1.7-3.2c0.4-1.2,0.8-2.5,1.2-3.8c0.5-1.3,1-2.6,1.7-3.9
		c1.4-2.7,3.6-5,6.4-6.4c1.5-0.7,3.1-1,4.7-1c1.6-0.1,3.3,0.1,4.9-0.1c1.6-0.1,3.1-0.7,4.3-1.7c1.1-1.1,2-2.4,2.6-3.9
		c0.6-1.4,1.4-2.8,2.4-4c1-1.1,2.2-2.1,3.5-2.8c2.5-1.2,5.2-1.8,7.9-2c2.6-0.2,4.9-0.3,7.1-0.7c1.9-0.2,3.8-0.8,5.6-1.6
		c1.3-0.6,2.5-1.5,3.6-2.5c0.6-0.7,1.2-1.4,1.6-2.2c0.3-0.6,0.4-0.9,0.4-0.9c-0.1,0.3-0.2,0.6-0.3,0.9c-0.4,0.9-0.9,1.7-1.5,2.3
		c-1,1.1-2.2,2-3.6,2.6c-1.8,0.9-3.7,1.4-5.6,1.7c-2.2,0.3-4.6,0.4-7.1,0.7c-2.7,0.2-5.3,0.9-7.8,2c-1.3,0.6-2.4,1.5-3.4,2.7
		c-0.9,1.2-1.7,2.5-2.3,3.9c-0.6,1.5-1.6,2.8-2.7,4c-1.3,1.1-2.9,1.8-4.6,1.9c-1.7,0.1-3.3,0-4.9,0.1c-1.6,0-3.1,0.3-4.5,0.9
		c-2.6,1.4-4.8,3.5-6.2,6.2c-0.7,1.2-1.2,2.5-1.7,3.8c-0.5,1.3-0.8,2.6-1.2,3.8c-0.8,2.4-2.3,4.6-4.5,5.4c-1,0.4-2.1,0.5-3.1,0.3
		c-0.9-0.1-1.8-0.4-2.7-0.6c-1.4-0.5-2.8-0.8-4.3-0.8c-0.9,0-1.8,0.2-2.6,0.7C163.1,73.8,162.9,74.1,162.9,74z"/>
	<path class="st8" d="M193.4,95.1c0,0,0.2,0,0.4-0.2c0.4-0.2,0.6-0.6,0.8-1c0.2-0.7,0.1-1.4-0.3-2c-0.6-0.7-1.3-1.3-2.2-1.7
		c-1.1-0.4-2.1-1-3-1.8c-1-1-1.6-2.3-1.7-3.7c-0.1-1.5,0.2-3,0.9-4.4c0.8-1.4,2-2.6,3.3-3.4c2.7-1.5,5.6-2.5,8.7-2.9
		c2.4-0.4,4.8-1,7.2-1.8c1.6-0.6,3-1.5,4.2-2.6c0.9-0.8,1.2-1.4,1.2-1.4s-0.1,0.1-0.2,0.4c-0.3,0.4-0.5,0.7-0.9,1.1
		c-1.2,1.2-2.6,2.2-4.2,2.8c-2.3,0.9-4.7,1.5-7.2,1.9c-2.7,0.5-5.8,1.1-8.5,2.9c-1.3,0.8-2.4,1.9-3.2,3.3c-0.7,1.3-1,2.7-0.9,4.1
		c0.1,1.3,0.6,2.5,1.5,3.4c0.9,0.7,1.8,1.3,2.9,1.7c0.9,0.4,1.7,1,2.2,1.8c0.4,0.6,0.5,1.4,0.3,2.2c-0.2,0.4-0.5,0.8-0.9,1
		C193.7,95,193.5,95.1,193.4,95.1z"/>
	<path class="st12" d="M205.9,147.3c0,0-1.1-1.2-0.8-2.4s1.1-2,1.4-1.9s0.2-6.3,1.4-6.7c0.8-0.3,1.6-0.6,2.5-0.8
		c0,0,1.4-3.5,2.1-3.4s9.3,1.6,9.3,1.6s6.7,7.2,6.4,7.9s-0.8,1.4-1.8,1.1c-0.7-0.3-1.4-0.6-2.1-1.1l3.6,3.9c0,0-0.7,3-3.6,0.9
		l1.4,1.8c0,0-0.9,3.8-5.1,0.6l-4.3-2.6h-2.8l6.4,3.9c0,0,0.7,1.9-1.2,1.9s-6.8-2.6-6.8-2.6s-2.9,1.7-3.9,1.7s-1.2-1.1-1.2-1.1
		L205.9,147.3z"/>
	<path class="st13" d="M224.4,146.6c-0.5-0.4-1-0.8-1.5-1.3c-1.2-1-2.4-2-3.5-3.2c-0.6-0.6-1.3-1-2.2-1c-0.7,0-1.4,0-2.1,0.1
		c-0.7,0.1-1.4,0.1-2-0.1c0-0.1,0.8,0,1.9-0.2c0.7-0.2,1.4-0.2,2.2-0.2c0.4,0,0.9,0.1,1.3,0.3c0.4,0.2,0.9,0.5,1.2,0.8
		c1.2,1.4,2.5,2.4,3.4,3.3C223.6,145.5,224,146,224.4,146.6z"/>
	<path class="st13" d="M227.8,145.5c-0.6-0.5-1.2-1.1-1.8-1.7c-1.1-1.1-2.5-2.6-4.1-4.2c-0.8-0.8-1.6-1.6-2.4-2.2
		c-0.7-0.5-1.5-0.8-2.4-0.9c-1.5-0.1-2.4,0-2.4,0c0.2-0.1,0.4-0.1,0.6-0.2c0.6-0.1,1.2-0.1,1.8-0.1c0.9,0,1.8,0.3,2.6,0.8
		c0.8,0.7,1.7,1.4,2.4,2.2c1.6,1.6,3.1,3.2,4,4.3C226.9,144.2,227.4,144.9,227.8,145.5z"/>
	<path class="st5" d="M230.9,66.2c0.3-0.1,0.9,0.8,1.8,1.7s1.8,1.5,1.7,1.8s-1.3,0-2.4-1.1S230.6,66.3,230.9,66.2z"/>
	<path class="st2" d="M304.7,146.4l-8.9-45.7c-0.4-1.8-2.3-3-4.1-2.6c-1.8,0.4-2.9,2.1-2.6,3.9l0.4,2.1l-18.4,4.5
		c-4,1-7.2,3.8-8.6,7.7l-11.1,2.7c-3.8,0.9-6.2,4.8-5.2,8.7l1,4l-10.9,2.7c-3,0.7-4.9,3.8-4.1,6.8s3.8,4.9,6.8,4.1l10.9-2.7l0.8,3.1
		c0.9,3.8,4.8,6.2,8.7,5.2l11.3-2.8v-0.1c3,2.6,7.1,3.5,10.9,2.6l16.3-4l0.2,1c0.4,1.8,2.3,3,4.1,2.6
		C303.9,149.9,305,148.2,304.7,146.4L304.7,146.4z"/>
	<path class="st5" d="M304.7,146.4c0.1,0.3,0.1,0.5,0.1,0.8c0,0.8-0.3,1.5-0.8,2.1c-0.8,1-2.1,1.4-3.4,1.2c-1.2-0.3-2.2-1.2-2.6-2.4
		c-0.1-0.4-0.2-0.9-0.3-1.4l0.1,0.1l-12,3l-3.6,0.9c-1.3,0.4-2.6,0.5-3.9,0.5c-2.9-0.1-5.7-1.1-7.9-3l0.3-0.2v0.1l0,0.2h-0.2
		c-3.8,0.9-7.8,2-12.1,2.9c-2.3,0.3-4.6-0.5-6.3-2.2c-0.8-0.9-1.4-1.9-1.8-3.1c-0.3-1.1-0.6-2.3-0.9-3.4l0.3,0.2l-9.2,2.3
		c-0.8,0.2-1.5,0.4-2.4,0.5c-3.2,0.4-6.1-1.9-6.5-5.1c-0.2-1.3,0.1-2.6,0.8-3.7c0.9-1.5,2.5-2.6,4.3-2.9l10.2-2.5l-0.2,0.3
		c-0.2-0.8-0.4-1.7-0.6-2.6c-0.3-0.9-0.4-1.8-0.6-2.7c-0.1-1.9,0.5-3.8,1.7-5.3c0.6-0.7,1.3-1.3,2.1-1.8c0.8-0.4,1.7-0.7,2.6-0.9
		l10.3-2.5l-0.2,0.1c1-2.6,2.8-4.8,5.2-6.3c1.2-0.7,2.4-1.2,3.7-1.5l3.8-0.9l14.4-3.5l-0.2,0.2c-0.1-0.5-0.2-1.1-0.3-1.6
		c-0.1-0.6-0.2-1.1-0.1-1.7c0.3-2,2.2-3.3,4.2-3c0.4,0.1,0.7,0.2,1,0.3c1,0.5,1.7,1.4,2,2.4l2.2,11.3c1.4,7.1,2.5,13.3,3.5,18.4
		s1.7,9.1,2.3,11.9c0.2,1.4,0.4,2.4,0.6,3.1c0.1,0.4,0.1,0.6,0.1,0.8C304.7,146.2,304.7,146.3,304.7,146.4c0,0,0-0.1-0.1-0.2
		c0-0.2-0.1-0.5-0.2-0.8l-0.6-3.1c-0.5-2.8-1.4-6.8-2.4-11.9s-2.2-11.3-3.6-18.4c-0.7-3.5-1.4-7.3-2.2-11.3c-0.2-1-0.9-1.8-1.8-2.2
		c-1.6-0.8-3.5-0.1-4.3,1.5c-0.1,0.3-0.2,0.6-0.3,0.9c-0.1,0.5,0,1,0.1,1.6c0.1,0.5,0.2,1.1,0.3,1.6v0.2l-0.2,0.1l-14.4,3.6
		c-2.5,0.7-5.2,1-7.4,2.4c-2.3,1.4-4.1,3.6-5,6.1l0,0.1h-0.1l-10.3,2.5c-0.9,0.2-1.7,0.4-2.5,0.9c-0.8,0.4-1.4,1-2,1.6
		c-1.1,1.4-1.7,3.1-1.6,4.9c0.1,0.9,0.3,1.8,0.5,2.6c0.2,0.9,0.4,1.7,0.6,2.6l0.1,0.2l-0.2,0.1l-10.2,2.5c-1.7,0.2-3.1,1.2-4,2.7
		c-1.5,2.6-0.6,5.9,2,7.3c1,0.6,2.2,0.8,3.3,0.7c0.8-0.1,1.6-0.4,2.3-0.5l9.1-2.2l0.2-0.1l0.1,0.2c0.3,1.1,0.6,2.3,0.9,3.4
		c0.3,1.1,0.9,2.1,1.7,2.9c1.5,1.6,3.7,2.4,5.9,2.1c4.2-0.9,8.3-2,12.1-2.9l-0.1,0.2v-0.1l-0.1-0.6l0.4,0.4c2.1,1.8,4.8,2.9,7.6,2.9
		c1.3,0,2.6-0.2,3.8-0.5l3.6-0.9l12-2.9h0.1v0.1c0.1,0.5,0.2,0.9,0.3,1.3c0.1,0.4,0.3,0.8,0.6,1.1c0.5,0.6,1.2,1,1.9,1.2
		c1.8,0.4,3.6-0.8,4-2.6c0-0.2,0.1-0.3,0.1-0.5C304.7,146.9,304.7,146.6,304.7,146.4z"/>
	<path class="st5" d="M298.2,146.6c-0.1,0-2.3-9.5-4.8-21.2s-4.5-21.3-4.3-21.3s2.3,9.4,4.8,21.2S298.3,146.6,298.2,146.6z"/>
	<path class="st5" d="M270.5,148.1c-0.1,0-2-7.1-4.3-15.9s-3.9-16-3.8-16s2,7.1,4.3,15.9S270.7,148.1,270.5,148.1z"/>
	<path class="st5" d="M249.8,142.6c-0.7-1.7-1.3-3.5-1.6-5.4c-0.5-1.8-0.8-3.7-1.1-5.5c0.7,1.7,1.3,3.6,1.6,5.4
		C249.2,138.9,249.6,140.8,249.8,142.6z"/>
	<path class="st4" d="M259.7,118.9c0,0.1-1.1,0.2-2.8,0.6c-0.9,0.2-1.9,0.4-3,0.7c-1.2,0.3-2.4,0.8-3.5,1.4c-1.1,0.5-2,1.4-2.4,2.5
		c-0.2,1-0.2,2-0.1,3c0.2,1.7,0.5,2.8,0.4,2.8c-0.4-0.9-0.7-1.8-0.8-2.8c-0.2-1-0.2-2.1,0-3.2c0.2-0.6,0.5-1.2,1-1.6
		c0.5-0.5,1-0.9,1.6-1.2c1.1-0.6,2.3-1.1,3.6-1.4c1.1-0.3,2.2-0.5,3-0.6C257.8,118.9,258.7,118.9,259.7,118.9z"/>
	<path class="st4" d="M286,106.8c-0.3,0.1-0.6,0.2-1,0.3c-0.6,0.1-1.5,0.4-2.6,0.6l-8.7,1.8c-1.6,0.3-3.1,0.9-4.5,1.6
		c-1.2,0.6-2.2,1.4-3,2.5c-0.7,1-1.2,2.1-1.5,3.3c-0.1-0.3,0-0.7,0.1-1c0.2-0.9,0.6-1.7,1.2-2.5c0.8-1.1,1.9-2,3-2.6
		c1.5-0.8,3-1.3,4.6-1.7c3.4-0.7,6.5-1.3,8.7-1.7c1.1-0.2,2-0.4,2.6-0.4C285.4,106.8,285.7,106.8,286,106.8z"/>
	<path class="st4" d="M245.2,134.2c-0.6,0.4-1.2,0.7-1.9,0.8c-1.2,0.3-3,0.5-4.9,0.9c-0.9,0.2-1.7,0.5-2.5,0.9
		c-0.6,0.3-1.2,0.8-1.7,1.3c-0.4,0.5-0.8,1.1-1.1,1.7c0-0.7,0.3-1.4,0.8-1.9c0.5-0.6,1.1-1.1,1.8-1.5c0.8-0.5,1.7-0.8,2.6-1
		c1.9-0.4,3.7-0.5,4.9-0.7S245.2,134.1,245.2,134.2z"/>
	<path class="st4" d="M293.5,99c0,0.1-0.4,0.1-0.9,0.2c-0.7,0.2-1.3,0.6-1.8,1.1c-0.4,0.5-0.7,1.2-0.8,1.9c-0.1,0.5,0,0.9-0.1,0.9
		s-0.2-0.3-0.3-0.9c0-0.8,0.2-1.6,0.8-2.2c0.5-0.6,1.3-1,2.1-1.1C293.1,98.8,293.5,98.9,293.5,99z"/>
</g>
<g id="freepik--Lines--inject-44">
	<path class="st5" d="M439.2,92.2c-0.1,0-0.1,0.1-0.2,0.1l-0.6,0.3l-2.2,1.1L428,98l-27.5,13.9l-0.2,0.1l-0.1-0.2
		c-0.8-1.1-1.6-2.2-2.4-3.4l-3.4-4.8l0.3,0.1l-25.6,14.8l-7.6,4.4l-2.1,1.1c-0.2,0.1-0.4,0.2-0.5,0.3s-0.2,0.1-0.2,0.1s0,0,0.2-0.1
		l0.5-0.3l2-1.2l7.6-4.5l25.6-14.9l0.2-0.1l0.1,0.2c1.1,1.5,2.2,3.2,3.4,4.8c0.8,1.2,1.6,2.3,2.4,3.4l-0.3-0.1l27.6-13.7l8.3-4.1
		l2.2-1.1l0.6-0.3L439.2,92.2z"/>
	<path class="st5" d="M431.9,128.4c-0.2,0.1-0.4,0.1-0.5,0.1l-1.6,0.4l-5.9,1.2l-19.6,3.8l-0.2,0.1v-0.2l-0.4-2.4
		c-0.1-0.6-0.2-1.1-0.3-1.6l0.3,0.2c-8,1.4-15,3-20,4.4c-2.5,0.7-4.5,1.2-6,1.6l-1.6,0.4c-0.2,0.1-0.4,0.1-0.6,0.1
		c0.2-0.1,0.4-0.2,0.5-0.2l1.6-0.5c1.4-0.4,3.4-1.1,5.9-1.8c6.6-1.8,13.3-3.4,20-4.5h0.2v0.2c0.1,0.5,0.2,1.1,0.3,1.6
		c0.1,0.8,0.3,1.7,0.4,2.4l-0.3-0.2l19.6-3.6l5.9-1l1.6-0.3C431.5,128.5,431.7,128.4,431.9,128.4z"/>
	<path class="st5" d="M364.9,93.7c0.1,0.1-2.4,5.6-5.7,12.3s-6,12.1-6.1,12.1s2.4-5.6,5.7-12.3S364.7,93.6,364.9,93.7z"/>
	<path class="st5" d="M394.7,120.6c0,0.1-6.3,2.1-14.1,4.4s-14.2,4-14.3,3.9s6.3-2.1,14.1-4.4S394.7,120.5,394.7,120.6z"/>
	<path class="st5" d="M345.8,76.4c0.2,0.3,0.3,0.7,0.4,1c0.3,0.7,0.6,1.7,1,2.9c0.9,2.6,2,6.1,3.5,10.3l0.1,0.3h-0.3l-7.8-0.2
		l0.2-0.3c0.2,1,0.4,2,0.6,3.1c1.3,7,2.4,13.4,3.3,18.1c0.4,2.3,0.7,4.1,0.9,5.5c0.1,0.6,0.2,1.1,0.2,1.5c0,0.2,0.1,0.4,0,0.5
		c-0.1-0.2-0.1-0.3-0.1-0.5c-0.1-0.4-0.2-0.9-0.3-1.5l-1.1-5.5c-0.9-4.7-2.1-11.1-3.4-18.1c-0.2-1.1-0.4-2.1-0.6-3.1l-0.1-0.3h0.3
		l7.8,0.2l-0.2,0.3l-3.3-10.4c-0.4-1.2-0.7-2.2-0.9-3C345.9,77.1,345.8,76.8,345.8,76.4z"/>
	<path class="st5" d="M311.2,151.8c-0.1-0.1,5-2.6,11.3-5.6s11.5-5.3,11.5-5.1s-5,2.6-11.3,5.6S311.3,151.9,311.2,151.8z"/>
	<path class="st5" d="M334.8,159c1.3-2,2.8-3.8,4.3-5.6c1.5-1.9,3-3.6,4.7-5.3c-1.3,2-2.8,3.8-4.3,5.6
		C338.1,155.6,336.5,157.4,334.8,159z"/>
	<path class="st5" d="M347.5,193.4c-0.1,0,0.7-9.8,1.9-21.8s2.3-21.7,2.4-21.7s-0.7,9.8-1.9,21.8
		C348.8,183.7,347.7,193.4,347.5,193.4z"/>
	<path class="st5" d="M330.2,107.2c0.9,1.3,1.7,2.6,2.3,4.1c0.8,1.4,1.4,2.8,1.9,4.3c-0.9-1.3-1.7-2.7-2.3-4.1
		C331.3,110.2,330.7,108.7,330.2,107.2z"/>
</g>
</svg>
